<?xml version="1.0" encoding="UTF-8"?>
<svg xmlns="http://www.w3.org/2000/svg" version="1.1" width="1024" height="1024" viewBox="0 0 500 500"><g transform="scale(16.129)"><g transform="translate(1,1)"><g><g transform="translate(3.5,3.5)"><path fill-rule="evenodd" d="M-3.5 -3.5L3.5 -3.5L3.5 3.5L-3.5 3.5ZM-2.5 -2.5L-2.5 2.5L2.5 2.5L2.5 -2.5Z" fill="#000000"/><path fill-rule="evenodd" d="M-1.5 -1.5L1.5 -1.5L1.5 1.5L-1.5 1.5Z" fill="#000000"/></g></g><g><g transform="translate(25.5,3.5)"><g transform="rotate(90)"><path fill-rule="evenodd" d="M-3.5 -3.5L3.5 -3.5L3.5 3.5L-3.5 3.5ZM-2.5 -2.5L-2.5 2.5L2.5 2.5L2.5 -2.5Z" fill="#000000"/><path fill-rule="evenodd" d="M-1.5 -1.5L1.5 -1.5L1.5 1.5L-1.5 1.5Z" fill="#000000"/></g></g></g><g><g transform="translate(3.5,25.5)"><g transform="rotate(-90)"><path fill-rule="evenodd" d="M-3.5 -3.5L3.5 -3.5L3.5 3.5L-3.5 3.5ZM-2.5 -2.5L-2.5 2.5L2.5 2.5L2.5 -2.5Z" fill="#000000"/><path fill-rule="evenodd" d="M-1.5 -1.5L1.5 -1.5L1.5 1.5L-1.5 1.5Z" fill="#000000"/></g></g></g><path fill-rule="evenodd" d="M12 0.45L12 0.55A0.45 0.45 0 0 0 12.45 1L12.55 1A0.45 0.45 0 0 0 13 0.55L13 0.45A0.45 0.45 0 0 0 12.55 0L12.45 0A0.45 0.45 0 0 0 12 0.45ZM15 0.45L15 0.55A0.45 0.45 0 0 0 15.45 1L16.55 1A0.45 0.45 0 0 1 17 1.45L17 1.55A0.45 0.45 0 0 1 16.55 2L16.45 2A0.45 0.45 0 0 0 16 2.45L16 3.55A0.45 0.45 0 0 1 15.55 4L13.45 4A0.45 0.45 0 0 1 13 3.55L13 2.45A0.45 0.45 0 0 0 12.55 2L11.45 2A0.45 0.45 0 0 1 11 1.55L11 1.45A0.45 0.45 0 0 0 10.55 1L10.45 1A0.45 0.45 0 0 0 10 1.45L10 4.55A0.45 0.45 0 0 0 10.45 5L10.55 5A0.45 0.45 0 0 1 11 5.45L11 5.55A0.45 0.45 0 0 1 10.55 6L10.45 6A0.45 0.45 0 0 0 10 6.45L10 6.55A0.45 0.45 0 0 0 10.45 7L10.55 7A0.45 0.45 0 0 1 11 7.45L11 8.55A0.45 0.45 0 0 0 11.45 9L11.55 9A0.45 0.45 0 0 1 12 9.45L12 9.55A0.45 0.45 0 0 1 11.55 10L11.45 10A0.45 0.45 0 0 0 11 10.45L11 10.55A0.45 0.45 0 0 1 10.55 11L9.45 11A0.45 0.45 0 0 1 9 10.55L9 10.45A0.45 0.45 0 0 0 8.55 10L4.45 10A0.45 0.45 0 0 1 4 9.55L4 9.45A0.45 0.45 0 0 1 4.45 9L6.55 9A0.45 0.45 0 0 0 7 8.55L7 8.45A0.45 0.45 0 0 0 6.55 8L2.45 8A0.45 0.45 0 0 0 2 8.45L2 8.55A0.45 0.45 0 0 1 1.55 9L1.45 9A0.45 0.45 0 0 1 1 8.55L1 8.45A0.45 0.45 0 0 0 0.55 8L0.45 8A0.45 0.45 0 0 0 0 8.45L0 8.55A0.45 0.45 0 0 0 0.45 9L0.55 9A0.45 0.45 0 0 1 1 9.45L1 9.55A0.45 0.45 0 0 0 1.45 10L1.55 10A0.45 0.45 0 0 1 2 10.45L2 10.55A0.45 0.45 0 0 1 1.55 11L1.45 11A0.45 0.45 0 0 0 1 11.45L1 12.55A0.45 0.45 0 0 0 1.45 13L2.55 13A0.45 0.45 0 0 1 3 13.45L3 13.55A0.45 0.45 0 0 1 2.55 14L1.45 14A0.45 0.45 0 0 0 1 14.45L1 14.55A0.45 0.45 0 0 1 0.55 15L0.45 15A0.45 0.45 0 0 0 0 15.45L0 20.55A0.45 0.45 0 0 0 0.45 21L0.55 21A0.45 0.45 0 0 0 1 20.55L1 15.45A0.45 0.45 0 0 1 1.45 15L1.55 15A0.45 0.45 0 0 1 2 15.45L2 19.55A0.45 0.45 0 0 0 2.45 20L2.55 20A0.45 0.45 0 0 1 3 20.45L3 20.55A0.45 0.45 0 0 0 3.45 21L3.55 21A0.45 0.45 0 0 0 4 20.55L4 20.45A0.45 0.45 0 0 0 3.55 20L3.45 20A0.45 0.45 0 0 1 3 19.55L3 18.45A0.45 0.45 0 0 1 3.45 18L3.55 18A0.45 0.45 0 0 1 4 18.45L4 18.55A0.45 0.45 0 0 0 4.45 19L4.55 19A0.45 0.45 0 0 0 5 18.55L5 17.45A0.45 0.45 0 0 1 5.45 17L7.55 17A0.45 0.45 0 0 1 8 17.45L8 17.55A0.45 0.45 0 0 0 8.45 18L8.55 18A0.45 0.45 0 0 1 9 18.45L9 18.55A0.45 0.45 0 0 0 9.45 19L12.55 19A0.45 0.45 0 0 0 13 18.55L13 16.45A0.45 0.45 0 0 1 13.45 16L13.55 16A0.45 0.45 0 0 1 14 16.45L14 16.55A0.45 0.45 0 0 0 14.45 17L14.55 17A0.45 0.45 0 0 1 15 17.45L15 17.55A0.45 0.45 0 0 0 15.45 18L16.55 18A0.45 0.45 0 0 0 17 17.55L17 17.45A0.45 0.45 0 0 1 17.45 17L17.55 17A0.45 0.45 0 0 1 18 17.45L18 17.55A0.45 0.45 0 0 0 18.45 18L18.55 18A0.45 0.45 0 0 0 19 17.55L19 17.45A0.45 0.45 0 0 0 18.55 17L18.45 17A0.45 0.45 0 0 1 18 16.55L18 16.45A0.45 0.45 0 0 1 18.45 16L21.55 16A0.45 0.45 0 0 1 22 16.45L22 16.55A0.45 0.45 0 0 1 21.55 17L21.45 17A0.45 0.45 0 0 0 21 17.45L21 17.55A0.45 0.45 0 0 1 20.55 18L20.45 18A0.45 0.45 0 0 0 20 18.45L20 18.55A0.45 0.45 0 0 1 19.55 19L19.45 19A0.45 0.45 0 0 0 19 19.45L19 19.55A0.45 0.45 0 0 1 18.55 20L17.45 20A0.45 0.45 0 0 1 17 19.55L17 19.45A0.45 0.45 0 0 0 16.55 19L16.45 19A0.45 0.45 0 0 0 16 19.45L16 20.55A0.45 0.45 0 0 1 15.55 21L13.45 21A0.45 0.45 0 0 1 13 20.55L13 20.45A0.45 0.45 0 0 0 12.55 20L10.45 20A0.45 0.45 0 0 0 10 20.45L10 20.55A0.45 0.45 0 0 1 9.55 21L8.45 21A0.45 0.45 0 0 0 8 21.45L8 21.55A0.45 0.45 0 0 0 8.45 22L8.55 22A0.45 0.45 0 0 1 9 22.45L9 22.55A0.45 0.45 0 0 1 8.55 23L8.45 23A0.45 0.45 0 0 0 8 23.45L8 26.55A0.45 0.45 0 0 0 8.45 27L8.55 27A0.45 0.45 0 0 0 9 26.55L9 25.45A0.45 0.45 0 0 1 9.45 25L9.55 25A0.45 0.45 0 0 0 10 24.55L10 23.45A0.45 0.45 0 0 1 10.45 23L10.55 23A0.45 0.45 0 0 1 11 23.45L11 25.55A0.45 0.45 0 0 0 11.45 26L11.55 26A0.45 0.45 0 0 0 12 25.55L12 25.45A0.45 0.45 0 0 1 12.45 25L12.55 25A0.45 0.45 0 0 1 13 25.45L13 25.55A0.45 0.45 0 0 0 13.45 26L13.55 26A0.45 0.45 0 0 1 14 26.45L14 26.55A0.45 0.45 0 0 1 13.55 27L13.45 27A0.45 0.45 0 0 0 13 27.45L13 27.55A0.45 0.45 0 0 1 12.55 28L11.45 28A0.45 0.45 0 0 0 11 28.45L11 28.55A0.45 0.45 0 0 0 11.45 29L12.55 29A0.45 0.45 0 0 0 13 28.55L13 28.45A0.45 0.45 0 0 1 13.45 28L13.55 28A0.45 0.45 0 0 1 14 28.45L14 28.55A0.45 0.45 0 0 0 14.45 29L14.55 29A0.45 0.45 0 0 0 15 28.55L15 28.45A0.45 0.45 0 0 0 14.55 28L14.45 28A0.45 0.45 0 0 1 14 27.55L14 27.45A0.45 0.45 0 0 1 14.45 27L14.55 27A0.45 0.45 0 0 0 15 26.55L15 26.45A0.45 0.45 0 0 1 15.45 26L16.55 26A0.45 0.45 0 0 0 17 25.55L17 25.45A0.45 0.45 0 0 1 17.45 25L17.55 25A0.45 0.45 0 0 1 18 25.45L18 28.55A0.45 0.45 0 0 0 18.45 29L19.55 29A0.45 0.45 0 0 0 20 28.55L20 28.45A0.45 0.45 0 0 0 19.55 28L19.45 28A0.45 0.45 0 0 1 19 27.55L19 25.45A0.45 0.45 0 0 1 19.45 25L19.55 25A0.45 0.45 0 0 1 20 25.45L20 25.55A0.45 0.45 0 0 0 20.45 26L20.55 26A0.45 0.45 0 0 0 21 25.55L21 25.45A0.45 0.45 0 0 1 21.45 25L22.55 25A0.45 0.45 0 0 1 23 25.45L23 26.55A0.45 0.45 0 0 0 23.45 27L23.55 27A0.45 0.45 0 0 0 24 26.55L24 25.45A0.45 0.45 0 0 1 24.45 25L24.55 25A0.45 0.45 0 0 0 25 24.55L25 23.45A0.45 0.45 0 0 1 25.45 23L25.55 23A0.45 0.45 0 0 1 26 23.45L26 24.55A0.45 0.45 0 0 0 26.45 25L28.55 25A0.45 0.45 0 0 0 29 24.55L29 23.45A0.45 0.45 0 0 0 28.55 23L27.45 23A0.45 0.45 0 0 1 27 22.55L27 22.45A0.45 0.45 0 0 1 27.45 22L27.55 22A0.45 0.45 0 0 0 28 21.55L28 20.45A0.45 0.45 0 0 0 27.55 20L25.45 20A0.45 0.45 0 0 1 25 19.55L25 19.45A0.45 0.45 0 0 1 25.45 19L28.55 19A0.45 0.45 0 0 0 29 18.55L29 17.45A0.45 0.45 0 0 0 28.55 17L28.45 17A0.45 0.45 0 0 0 28 17.45L28 17.55A0.45 0.45 0 0 1 27.55 18L26.45 18A0.45 0.45 0 0 1 26 17.55L26 17.45A0.45 0.45 0 0 0 25.55 17L24.45 17A0.45 0.45 0 0 1 24 16.55L24 16.45A0.45 0.45 0 0 1 24.45 16L24.55 16A0.45 0.45 0 0 0 25 15.55L25 15.45A0.45 0.45 0 0 1 25.45 15L26.55 15A0.45 0.45 0 0 1 27 15.45L27 15.55A0.45 0.45 0 0 0 27.45 16L28.55 16A0.45 0.45 0 0 0 29 15.55L29 14.45A0.45 0.45 0 0 0 28.55 14L28.45 14A0.45 0.45 0 0 1 28 13.55L28 13.45A0.45 0.45 0 0 0 27.55 13L27.45 13A0.45 0.45 0 0 0 27 13.45L27 13.55A0.45 0.45 0 0 1 26.55 14L26.45 14A0.45 0.45 0 0 1 26 13.55L26 13.45A0.45 0.45 0 0 0 25.55 13L24.45 13A0.45 0.45 0 0 1 24 12.55L24 12.45A0.45 0.45 0 0 1 24.45 12L25.55 12A0.45 0.45 0 0 0 26 11.55L26 11.45A0.45 0.45 0 0 1 26.45 11L26.55 11A0.45 0.45 0 0 0 27 10.55L27 10.45A0.45 0.45 0 0 1 27.45 10L27.55 10A0.45 0.45 0 0 0 28 9.55L28 9.45A0.45 0.45 0 0 0 27.55 9L27.45 9A0.45 0.45 0 0 1 27 8.55L27 8.45A0.45 0.45 0 0 0 26.55 8L22.45 8A0.45 0.45 0 0 0 22 8.45L22 8.55A0.45 0.45 0 0 0 22.45 9L23.55 9A0.45 0.45 0 0 1 24 9.45L24 9.55A0.45 0.45 0 0 0 24.45 10L24.55 10A0.45 0.45 0 0 1 25 10.45L25 10.55A0.45 0.45 0 0 1 24.55 11L19.45 11A0.45 0.45 0 0 1 19 10.55L19 10.45A0.45 0.45 0 0 1 19.45 10L20.55 10A0.45 0.45 0 0 0 21 9.55L21 6.45A0.45 0.45 0 0 0 20.55 6L20.45 6A0.45 0.45 0 0 0 20 6.45L20 6.55A0.45 0.45 0 0 1 19.55 7L19.45 7A0.45 0.45 0 0 1 19 6.55L19 6.45A0.45 0.45 0 0 0 18.55 6L18.45 6A0.45 0.45 0 0 0 18 6.45L18 6.55A0.45 0.45 0 0 0 18.45 7L18.55 7A0.45 0.45 0 0 1 19 7.45L19 7.55A0.45 0.45 0 0 0 19.45 8L19.55 8A0.45 0.45 0 0 1 20 8.45L20 8.55A0.45 0.45 0 0 1 19.55 9L18.45 9A0.45 0.45 0 0 0 18 9.45L18 9.55A0.45 0.45 0 0 1 17.55 10L17.45 10A0.45 0.45 0 0 1 17 9.55L17 9.45A0.45 0.45 0 0 0 16.55 9L16.45 9A0.45 0.45 0 0 1 16 8.55L16 7.45A0.45 0.45 0 0 1 16.45 7L16.55 7A0.45 0.45 0 0 0 17 6.55L17 5.45A0.45 0.45 0 0 0 16.55 5L16.45 5A0.45 0.45 0 0 1 16 4.55L16 4.45A0.45 0.45 0 0 1 16.45 4L17.55 4A0.45 0.45 0 0 1 18 4.45L18 4.55A0.45 0.45 0 0 0 18.45 5L18.55 5A0.45 0.45 0 0 0 19 4.55L19 4.45A0.45 0.45 0 0 0 18.55 4L18.45 4A0.45 0.45 0 0 1 18 3.55L18 3.45A0.45 0.45 0 0 1 18.45 3L19.55 3A0.45 0.45 0 0 1 20 3.45L20 4.55A0.45 0.45 0 0 0 20.45 5L20.55 5A0.45 0.45 0 0 0 21 4.55L21 3.45A0.45 0.45 0 0 0 20.55 3L20.45 3A0.45 0.45 0 0 1 20 2.55L20 1.45A0.45 0.45 0 0 1 20.45 1L20.55 1A0.45 0.45 0 0 0 21 0.55L21 0.45A0.45 0.45 0 0 0 20.55 0L19.45 0A0.45 0.45 0 0 0 19 0.45L19 1.55A0.45 0.45 0 0 1 18.55 2L18.45 2A0.45 0.45 0 0 1 18 1.55L18 1.45A0.45 0.45 0 0 0 17.55 1L17.45 1A0.45 0.45 0 0 1 17 0.55L17 0.45A0.45 0.45 0 0 0 16.55 0L15.45 0A0.45 0.45 0 0 0 15 0.45ZM8 2.45L8 7.55A0.45 0.45 0 0 0 8.45 8L8.55 8A0.45 0.45 0 0 1 9 8.45L9 8.55A0.45 0.45 0 0 0 9.45 9L9.55 9A0.45 0.45 0 0 0 10 8.55L10 8.45A0.45 0.45 0 0 0 9.55 8L9.45 8A0.45 0.45 0 0 1 9 7.55L9 2.45A0.45 0.45 0 0 0 8.55 2L8.45 2A0.45 0.45 0 0 0 8 2.45ZM14 2.45L14 2.55A0.45 0.45 0 0 0 14.45 3L14.55 3A0.45 0.45 0 0 0 15 2.55L15 2.45A0.45 0.45 0 0 0 14.55 2L14.45 2A0.45 0.45 0 0 0 14 2.45ZM11 3.45L11 3.55A0.45 0.45 0 0 0 11.45 4L11.55 4A0.45 0.45 0 0 1 12 4.45L12 4.55A0.45 0.45 0 0 0 12.45 5L12.55 5A0.45 0.45 0 0 0 13 4.55L13 4.45A0.45 0.45 0 0 0 12.55 4L12.45 4A0.45 0.45 0 0 1 12 3.55L12 3.45A0.45 0.45 0 0 0 11.55 3L11.45 3A0.45 0.45 0 0 0 11 3.45ZM11 6.45L11 6.55A0.45 0.45 0 0 0 11.45 7L11.55 7A0.45 0.45 0 0 1 12 7.45L12 8.55A0.45 0.45 0 0 0 12.45 9L12.55 9A0.45 0.45 0 0 1 13 9.45L13 9.55A0.45 0.45 0 0 1 12.55 10L12.45 10A0.45 0.45 0 0 0 12 10.45L12 10.55A0.45 0.45 0 0 1 11.55 11L11.45 11A0.45 0.45 0 0 0 11 11.45L11 11.55A0.45 0.45 0 0 1 10.55 12L8.45 12A0.45 0.45 0 0 1 8 11.55L8 11.45A0.45 0.45 0 0 0 7.55 11L5.45 11A0.45 0.45 0 0 0 5 11.45L5 11.55A0.45 0.45 0 0 1 4.55 12L3.45 12A0.45 0.45 0 0 0 3 12.45L3 12.55A0.45 0.45 0 0 0 3.45 13L5.55 13A0.45 0.45 0 0 1 6 13.45L6 13.55A0.45 0.45 0 0 1 5.55 14L5.45 14A0.45 0.45 0 0 0 5 14.45L5 14.55A0.45 0.45 0 0 0 5.45 15L5.55 15A0.45 0.45 0 0 1 6 15.45L6 15.55A0.45 0.45 0 0 0 6.45 16L6.55 16A0.45 0.45 0 0 0 7 15.55L7 15.45A0.45 0.45 0 0 0 6.55 15L6.45 15A0.45 0.45 0 0 1 6 14.55L6 14.45A0.45 0.45 0 0 1 6.45 14L7.55 14A0.45 0.45 0 0 1 8 14.45L8 16.55A0.45 0.45 0 0 0 8.45 17L8.55 17A0.45 0.45 0 0 1 9 17.45L9 17.55A0.45 0.45 0 0 0 9.45 18L9.55 18A0.45 0.45 0 0 0 10 17.55L10 15.45A0.45 0.45 0 0 1 10.45 15L10.55 15A0.45 0.45 0 0 1 11 15.45L11 16.55A0.45 0.45 0 0 0 11.45 17L11.55 17A0.45 0.45 0 0 0 12 16.55L12 16.45A0.45 0.45 0 0 1 12.45 16L12.55 16A0.45 0.45 0 0 0 13 15.55L13 14.45A0.45 0.45 0 0 0 12.55 14L12.45 14A0.45 0.45 0 0 0 12 14.45L12 14.55A0.45 0.45 0 0 1 11.55 15L11.45 15A0.45 0.45 0 0 1 11 14.55L11 14.45A0.45 0.45 0 0 0 10.55 14L10.45 14A0.45 0.45 0 0 0 10 14.45L10 14.55A0.45 0.45 0 0 1 9.55 15L9.45 15A0.45 0.45 0 0 1 9 14.55L9 13.45A0.45 0.45 0 0 1 9.45 13L10.55 13A0.45 0.45 0 0 0 11 12.55L11 12.45A0.45 0.45 0 0 1 11.45 12L11.55 12A0.45 0.45 0 0 0 12 11.55L12 11.45A0.45 0.45 0 0 1 12.45 11L12.55 11A0.45 0.45 0 0 1 13 11.45L13 12.55A0.45 0.45 0 0 0 13.45 13L15.55 13A0.45 0.45 0 0 1 16 13.45L16 13.55A0.45 0.45 0 0 0 16.45 14L17.55 14A0.45 0.45 0 0 1 18 14.45L18 14.55A0.45 0.45 0 0 0 18.45 15L24.55 15A0.45 0.45 0 0 0 25 14.55L25 14.45A0.45 0.45 0 0 0 24.55 14L24.45 14A0.45 0.45 0 0 1 24 13.55L24 13.45A0.45 0.45 0 0 0 23.55 13L23.45 13A0.45 0.45 0 0 0 23 13.45L23 13.55A0.45 0.45 0 0 1 22.55 14L21.45 14A0.45 0.45 0 0 1 21 13.55L21 13.45A0.45 0.45 0 0 1 21.45 13L21.55 13A0.45 0.45 0 0 0 22 12.55L22 12.45A0.45 0.45 0 0 0 21.55 12L21.45 12A0.45 0.45 0 0 0 21 12.45L21 12.55A0.45 0.45 0 0 1 20.55 13L20.45 13A0.45 0.45 0 0 1 20 12.55L20 12.45A0.45 0.45 0 0 0 19.55 12L19.45 12A0.45 0.45 0 0 1 19 11.55L19 11.45A0.45 0.45 0 0 0 18.55 11L17.45 11A0.45 0.45 0 0 1 17 10.55L17 10.45A0.45 0.45 0 0 0 16.55 10L15.45 10A0.45 0.45 0 0 1 15 9.55L15 9.45A0.45 0.45 0 0 0 14.55 9L14.45 9A0.45 0.45 0 0 1 14 8.55L14 8.45A0.45 0.45 0 0 1 14.45 8L14.55 8A0.45 0.45 0 0 0 15 7.55L15 7.45A0.45 0.45 0 0 1 15.45 7L15.55 7A0.45 0.45 0 0 0 16 6.55L16 6.45A0.45 0.45 0 0 0 15.55 6L15.45 6A0.45 0.45 0 0 0 15 6.45L15 6.55A0.45 0.45 0 0 1 14.55 7L14.45 7A0.45 0.45 0 0 1 14 6.55L14 6.45A0.45 0.45 0 0 0 13.55 6L13.45 6A0.45 0.45 0 0 0 13 6.45L13 6.55A0.45 0.45 0 0 1 12.55 7L12.45 7A0.45 0.45 0 0 1 12 6.55L12 6.45A0.45 0.45 0 0 0 11.55 6L11.45 6A0.45 0.45 0 0 0 11 6.45ZM13 7.45L13 7.55A0.45 0.45 0 0 0 13.45 8L13.55 8A0.45 0.45 0 0 0 14 7.55L14 7.45A0.45 0.45 0 0 0 13.55 7L13.45 7A0.45 0.45 0 0 0 13 7.45ZM26 9.45L26 9.55A0.45 0.45 0 0 0 26.45 10L26.55 10A0.45 0.45 0 0 0 27 9.55L27 9.45A0.45 0.45 0 0 0 26.55 9L26.45 9A0.45 0.45 0 0 0 26 9.45ZM3 10.45L3 10.55A0.45 0.45 0 0 0 3.45 11L3.55 11A0.45 0.45 0 0 0 4 10.55L4 10.45A0.45 0.45 0 0 0 3.55 10L3.45 10A0.45 0.45 0 0 0 3 10.45ZM14 11.45L14 11.55A0.45 0.45 0 0 0 14.45 12L14.55 12A0.45 0.45 0 0 0 15 11.55L15 11.45A0.45 0.45 0 0 0 14.55 11L14.45 11A0.45 0.45 0 0 0 14 11.45ZM16 11.45L16 12.55A0.45 0.45 0 0 0 16.45 13L16.55 13A0.45 0.45 0 0 0 17 12.55L17 11.45A0.45 0.45 0 0 0 16.55 11L16.45 11A0.45 0.45 0 0 0 16 11.45ZM28 11.45L28 11.55A0.45 0.45 0 0 0 28.45 12L28.55 12A0.45 0.45 0 0 0 29 11.55L29 11.45A0.45 0.45 0 0 0 28.55 11L28.45 11A0.45 0.45 0 0 0 28 11.45ZM6 12.45L6 12.55A0.45 0.45 0 0 0 6.45 13L6.55 13A0.45 0.45 0 0 0 7 12.55L7 12.45A0.45 0.45 0 0 0 6.55 12L6.45 12A0.45 0.45 0 0 0 6 12.45ZM18 12.45L18 12.55A0.45 0.45 0 0 0 18.45 13L18.55 13A0.45 0.45 0 0 0 19 12.55L19 12.45A0.45 0.45 0 0 0 18.55 12L18.45 12A0.45 0.45 0 0 0 18 12.45ZM3 14.45L3 14.55A0.45 0.45 0 0 0 3.45 15L3.55 15A0.45 0.45 0 0 0 4 14.55L4 14.45A0.45 0.45 0 0 0 3.55 14L3.45 14A0.45 0.45 0 0 0 3 14.45ZM14 15.45L14 15.55A0.45 0.45 0 0 0 14.45 16L14.55 16A0.45 0.45 0 0 0 15 15.55L15 15.45A0.45 0.45 0 0 0 14.55 15L14.45 15A0.45 0.45 0 0 0 14 15.45ZM16 15.45L16 16.55A0.45 0.45 0 0 0 16.45 17L16.55 17A0.45 0.45 0 0 0 17 16.55L17 15.45A0.45 0.45 0 0 0 16.55 15L16.45 15A0.45 0.45 0 0 0 16 15.45ZM3 16.45L3 16.55A0.45 0.45 0 0 0 3.45 17L3.55 17A0.45 0.45 0 0 0 4 16.55L4 16.45A0.45 0.45 0 0 0 3.55 16L3.45 16A0.45 0.45 0 0 0 3 16.45ZM23 17.45L23 17.55A0.45 0.45 0 0 1 22.55 18L21.45 18A0.45 0.45 0 0 0 21 18.45L21 18.55A0.45 0.45 0 0 0 21.45 19L22.55 19A0.45 0.45 0 0 0 23 18.55L23 18.45A0.45 0.45 0 0 1 23.45 18L23.55 18A0.45 0.45 0 0 1 24 18.45L24 18.55A0.45 0.45 0 0 0 24.45 19L24.55 19A0.45 0.45 0 0 0 25 18.55L25 18.45A0.45 0.45 0 0 0 24.55 18L24.45 18A0.45 0.45 0 0 1 24 17.55L24 17.45A0.45 0.45 0 0 0 23.55 17L23.45 17A0.45 0.45 0 0 0 23 17.45ZM6 18.45L6 18.55A0.45 0.45 0 0 0 6.45 19L6.55 19A0.45 0.45 0 0 0 7 18.55L7 18.45A0.45 0.45 0 0 0 6.55 18L6.45 18A0.45 0.45 0 0 0 6 18.45ZM14 19.45L14 19.55A0.45 0.45 0 0 0 14.45 20L14.55 20A0.45 0.45 0 0 0 15 19.55L15 19.45A0.45 0.45 0 0 0 14.55 19L14.45 19A0.45 0.45 0 0 0 14 19.45ZM6 20.45L6 20.55A0.45 0.45 0 0 0 6.45 21L6.55 21A0.45 0.45 0 0 0 7 20.55L7 20.45A0.45 0.45 0 0 0 6.55 20L6.45 20A0.45 0.45 0 0 0 6 20.45ZM19 20.45L19 20.55A0.45 0.45 0 0 1 18.55 21L16.45 21A0.45 0.45 0 0 0 16 21.45L16 21.55A0.45 0.45 0 0 0 16.45 22L17.55 22A0.45 0.45 0 0 1 18 22.45L18 22.55A0.45 0.45 0 0 0 18.45 23L18.55 23A0.45 0.45 0 0 0 19 22.55L19 22.45A0.45 0.45 0 0 1 19.45 22L19.55 22A0.45 0.45 0 0 0 20 21.55L20 20.45A0.45 0.45 0 0 0 19.55 20L19.45 20A0.45 0.45 0 0 0 19 20.45ZM11 21.45L11 21.55A0.45 0.45 0 0 0 11.45 22L11.55 22A0.45 0.45 0 0 1 12 22.45L12 23.55A0.45 0.45 0 0 0 12.45 24L12.55 24A0.45 0.45 0 0 1 13 24.45L13 24.55A0.45 0.45 0 0 0 13.45 25L13.55 25A0.45 0.45 0 0 1 14 25.45L14 25.55A0.45 0.45 0 0 0 14.45 26L14.55 26A0.45 0.45 0 0 0 15 25.55L15 25.45A0.45 0.45 0 0 0 14.55 25L14.45 25A0.45 0.45 0 0 1 14 24.55L14 24.45A0.45 0.45 0 0 1 14.45 24L14.55 24A0.45 0.45 0 0 0 15 23.55L15 23.45A0.45 0.45 0 0 0 14.55 23L14.45 23A0.45 0.45 0 0 0 14 23.45L14 23.55A0.45 0.45 0 0 1 13.55 24L13.45 24A0.45 0.45 0 0 1 13 23.55L13 22.45A0.45 0.45 0 0 0 12.55 22L12.45 22A0.45 0.45 0 0 1 12 21.55L12 21.45A0.45 0.45 0 0 0 11.55 21L11.45 21A0.45 0.45 0 0 0 11 21.45ZM21 21.45L21 23.55A0.45 0.45 0 0 0 21.45 24L23.55 24A0.45 0.45 0 0 0 24 23.55L24 21.45A0.45 0.45 0 0 0 23.55 21L21.45 21A0.45 0.45 0 0 0 21 21.45ZM25 21.45L25 21.55A0.45 0.45 0 0 0 25.45 22L26.55 22A0.45 0.45 0 0 0 27 21.55L27 21.45A0.45 0.45 0 0 0 26.55 21L25.45 21A0.45 0.45 0 0 0 25 21.45ZM22 22.45L22 22.55A0.45 0.45 0 0 0 22.45 23L22.55 23A0.45 0.45 0 0 0 23 22.55L23 22.45A0.45 0.45 0 0 0 22.55 22L22.45 22A0.45 0.45 0 0 0 22 22.45ZM16 23.45L16 24.55A0.45 0.45 0 0 0 16.45 25L16.55 25A0.45 0.45 0 0 0 17 24.55L17 23.45A0.45 0.45 0 0 0 16.55 23L16.45 23A0.45 0.45 0 0 0 16 23.45ZM26 26.45L26 26.55A0.45 0.45 0 0 1 25.55 27L25.45 27A0.45 0.45 0 0 0 25 27.45L25 27.55A0.45 0.45 0 0 1 24.55 28L24.45 28A0.45 0.45 0 0 0 24 28.45L24 28.55A0.45 0.45 0 0 0 24.45 29L26.55 29A0.45 0.45 0 0 0 27 28.55L27 27.45A0.45 0.45 0 0 1 27.45 27L27.55 27A0.45 0.45 0 0 1 28 27.45L28 27.55A0.45 0.45 0 0 0 28.45 28L28.55 28A0.45 0.45 0 0 0 29 27.55L29 27.45A0.45 0.45 0 0 0 28.55 27L28.45 27A0.45 0.45 0 0 1 28 26.55L28 26.45A0.45 0.45 0 0 0 27.55 26L26.45 26A0.45 0.45 0 0 0 26 26.45ZM16 27.45L16 27.55A0.45 0.45 0 0 0 16.45 28L16.55 28A0.45 0.45 0 0 0 17 27.55L17 27.45A0.45 0.45 0 0 0 16.55 27L16.45 27A0.45 0.45 0 0 0 16 27.45ZM8 28.45L8 28.55A0.45 0.45 0 0 0 8.45 29L9.55 29A0.45 0.45 0 0 0 10 28.55L10 28.45A0.45 0.45 0 0 0 9.55 28L8.45 28A0.45 0.45 0 0 0 8 28.45ZM21 28.45L21 28.55A0.45 0.45 0 0 0 21.45 29L22.55 29A0.45 0.45 0 0 0 23 28.55L23 28.45A0.45 0.45 0 0 0 22.55 28L21.45 28A0.45 0.45 0 0 0 21 28.45Z" fill="#000000"/></g></g></svg>
