<?xml version="1.0" encoding="UTF-8"?>
<svg xmlns="http://www.w3.org/2000/svg" version="1.1" width="1024" height="1024" viewBox="0 0 500 500"><g transform="scale(16.129)"><g transform="translate(1,1)"><g><g transform="translate(3.5,3.5)"><path fill-rule="evenodd" d="M-3.5 -3.5L3.5 -3.5L3.5 3.5L-3.5 3.5ZM-2.5 -2.5L-2.5 2.5L2.5 2.5L2.5 -2.5Z" fill="#000000"/><path fill-rule="evenodd" d="M-1.5 -1.5L1.5 -1.5L1.5 1.5L-1.5 1.5Z" fill="#000000"/></g></g><g><g transform="translate(25.5,3.5)"><g transform="rotate(90)"><path fill-rule="evenodd" d="M-3.5 -3.5L3.5 -3.5L3.5 3.5L-3.5 3.5ZM-2.5 -2.5L-2.5 2.5L2.5 2.5L2.5 -2.5Z" fill="#000000"/><path fill-rule="evenodd" d="M-1.5 -1.5L1.5 -1.5L1.5 1.5L-1.5 1.5Z" fill="#000000"/></g></g></g><g><g transform="translate(3.5,25.5)"><g transform="rotate(-90)"><path fill-rule="evenodd" d="M-3.5 -3.5L3.5 -3.5L3.5 3.5L-3.5 3.5ZM-2.5 -2.5L-2.5 2.5L2.5 2.5L2.5 -2.5Z" fill="#000000"/><path fill-rule="evenodd" d="M-1.5 -1.5L1.5 -1.5L1.5 1.5L-1.5 1.5Z" fill="#000000"/></g></g></g><path fill-rule="evenodd" d="M15 0.45L15 0.55A0.45 0.45 0 0 0 15.45 1L16.55 1A0.45 0.45 0 0 0 17 0.55L17 0.45A0.45 0.45 0 0 0 16.55 0L15.45 0A0.45 0.45 0 0 0 15 0.45ZM19 0.45L19 2.55A0.45 0.45 0 0 1 18.55 3L17.45 3A0.45 0.45 0 0 1 17 2.55L17 2.45A0.45 0.45 0 0 0 16.55 2L16.45 2A0.45 0.45 0 0 0 16 2.45L16 3.55A0.45 0.45 0 0 1 15.55 4L13.45 4A0.45 0.45 0 0 1 13 3.55L13 3.45A0.45 0.45 0 0 0 12.55 3L12.45 3A0.45 0.45 0 0 0 12 3.45L12 3.55A0.45 0.45 0 0 1 11.55 4L11.45 4A0.45 0.45 0 0 1 11 3.55L11 2.45A0.45 0.45 0 0 0 10.55 2L10.45 2A0.45 0.45 0 0 1 10 1.55L10 1.45A0.45 0.45 0 0 0 9.55 1L9.45 1A0.45 0.45 0 0 0 9 1.45L9 1.55A0.45 0.45 0 0 1 8.55 2L8.45 2A0.45 0.45 0 0 0 8 2.45L8 7.55A0.45 0.45 0 0 0 8.45 8L8.55 8A0.45 0.45 0 0 1 9 8.45L9 8.55A0.45 0.45 0 0 0 9.45 9L9.55 9A0.45 0.45 0 0 0 10 8.55L10 8.45A0.45 0.45 0 0 1 10.45 8L11.55 8A0.45 0.45 0 0 0 12 7.55L12 7.45A0.45 0.45 0 0 1 12.45 7L12.55 7A0.45 0.45 0 0 1 13 7.45L13 7.55A0.45 0.45 0 0 0 13.45 8L13.55 8A0.45 0.45 0 0 1 14 8.45L14 8.55A0.45 0.45 0 0 0 14.45 9L14.55 9A0.45 0.45 0 0 1 15 9.45L15 9.55A0.45 0.45 0 0 0 15.45 10L16.55 10A0.45 0.45 0 0 1 17 10.45L17 10.55A0.45 0.45 0 0 1 16.55 11L16.45 11A0.45 0.45 0 0 0 16 11.45L16 12.55A0.45 0.45 0 0 1 15.55 13L12.45 13A0.45 0.45 0 0 1 12 12.55L12 12.45A0.45 0.45 0 0 0 11.55 12L10.45 12A0.45 0.45 0 0 1 10 11.55L10 10.45A0.45 0.45 0 0 0 9.55 10L8.45 10A0.45 0.45 0 0 1 8 9.55L8 9.45A0.45 0.45 0 0 0 7.55 9L7.45 9A0.45 0.45 0 0 1 7 8.55L7 8.45A0.45 0.45 0 0 0 6.55 8L2.45 8A0.45 0.45 0 0 0 2 8.45L2 8.55A0.45 0.45 0 0 1 1.55 9L1.45 9A0.45 0.45 0 0 1 1 8.55L1 8.45A0.45 0.45 0 0 0 0.55 8L0.45 8A0.45 0.45 0 0 0 0 8.45L0 10.55A0.45 0.45 0 0 0 0.45 11L0.55 11A0.45 0.45 0 0 1 1 11.45L1 11.55A0.45 0.45 0 0 0 1.45 12L1.55 12A0.45 0.45 0 0 1 2 12.45L2 14.55A0.45 0.45 0 0 0 2.45 15L2.55 15A0.45 0.45 0 0 0 3 14.55L3 12.45A0.45 0.45 0 0 1 3.45 12L3.55 12A0.45 0.45 0 0 0 4 11.55L4 11.45A0.45 0.45 0 0 0 3.55 11L3.45 11A0.45 0.45 0 0 0 3 11.45L3 11.55A0.45 0.45 0 0 1 2.55 12L2.45 12A0.45 0.45 0 0 1 2 11.55L2 11.45A0.45 0.45 0 0 0 1.55 11L1.45 11A0.45 0.45 0 0 1 1 10.55L1 10.45A0.45 0.45 0 0 1 1.45 10L4.55 10A0.45 0.45 0 0 1 5 10.45L5 12.55A0.45 0.45 0 0 1 4.55 13L4.45 13A0.45 0.45 0 0 0 4 13.45L4 13.55A0.45 0.45 0 0 0 4.45 14L5.55 14A0.45 0.45 0 0 1 6 14.45L6 14.55A0.45 0.45 0 0 1 5.55 15L5.45 15A0.45 0.45 0 0 0 5 15.45L5 17.55A0.45 0.45 0 0 1 4.55 18L4.45 18A0.45 0.45 0 0 1 4 17.55L4 17.45A0.45 0.45 0 0 0 3.55 17L2.45 17A0.45 0.45 0 0 0 2 17.45L2 17.55A0.45 0.45 0 0 0 2.45 18L2.55 18A0.45 0.45 0 0 1 3 18.45L3 18.55A0.45 0.45 0 0 1 2.55 19L2.45 19A0.45 0.45 0 0 0 2 19.45L2 20.55A0.45 0.45 0 0 0 2.45 21L2.55 21A0.45 0.45 0 0 0 3 20.55L3 20.45A0.45 0.45 0 0 1 3.45 20L3.55 20A0.45 0.45 0 0 1 4 20.45L4 20.55A0.45 0.45 0 0 0 4.45 21L7.55 21A0.45 0.45 0 0 1 8 21.45L8 21.55A0.45 0.45 0 0 0 8.45 22L8.55 22A0.45 0.45 0 0 1 9 22.45L9 22.55A0.45 0.45 0 0 1 8.55 23L8.45 23A0.45 0.45 0 0 0 8 23.45L8 26.55A0.45 0.45 0 0 0 8.45 27L8.55 27A0.45 0.45 0 0 1 9 27.45L9 27.55A0.45 0.45 0 0 1 8.55 28L8.45 28A0.45 0.45 0 0 0 8 28.45L8 28.55A0.45 0.45 0 0 0 8.45 29L9.55 29A0.45 0.45 0 0 0 10 28.55L10 28.45A0.45 0.45 0 0 1 10.45 28L10.55 28A0.45 0.45 0 0 1 11 28.45L11 28.55A0.45 0.45 0 0 0 11.45 29L11.55 29A0.45 0.45 0 0 0 12 28.55L12 27.45A0.45 0.45 0 0 1 12.45 27L13.55 27A0.45 0.45 0 0 0 14 26.55L14 25.45A0.45 0.45 0 0 1 14.45 25L14.55 25A0.45 0.45 0 0 1 15 25.45L15 25.55A0.45 0.45 0 0 0 15.45 26L16.55 26A0.45 0.45 0 0 0 17 25.55L17 25.45A0.45 0.45 0 0 1 17.45 25L19.55 25A0.45 0.45 0 0 1 20 25.45L20 25.55A0.45 0.45 0 0 0 20.45 26L20.55 26A0.45 0.45 0 0 0 21 25.55L21 25.45A0.45 0.45 0 0 1 21.45 25L22.55 25A0.45 0.45 0 0 1 23 25.45L23 26.55A0.45 0.45 0 0 0 23.45 27L23.55 27A0.45 0.45 0 0 0 24 26.55L24 25.45A0.45 0.45 0 0 1 24.45 25L24.55 25A0.45 0.45 0 0 0 25 24.55L25 23.45A0.45 0.45 0 0 1 25.45 23L25.55 23A0.45 0.45 0 0 1 26 23.45L26 24.55A0.45 0.45 0 0 0 26.45 25L28.55 25A0.45 0.45 0 0 0 29 24.55L29 23.45A0.45 0.45 0 0 0 28.55 23L27.45 23A0.45 0.45 0 0 1 27 22.55L27 22.45A0.45 0.45 0 0 1 27.45 22L27.55 22A0.45 0.45 0 0 0 28 21.55L28 20.45A0.45 0.45 0 0 0 27.55 20L25.45 20A0.45 0.45 0 0 1 25 19.55L25 19.45A0.45 0.45 0 0 1 25.45 19L28.55 19A0.45 0.45 0 0 0 29 18.55L29 17.45A0.45 0.45 0 0 0 28.55 17L28.45 17A0.45 0.45 0 0 0 28 17.45L28 17.55A0.45 0.45 0 0 1 27.55 18L26.45 18A0.45 0.45 0 0 1 26 17.55L26 17.45A0.45 0.45 0 0 0 25.55 17L24.45 17A0.45 0.45 0 0 1 24 16.55L24 16.45A0.45 0.45 0 0 1 24.45 16L24.55 16A0.45 0.45 0 0 0 25 15.55L25 15.45A0.45 0.45 0 0 1 25.45 15L26.55 15A0.45 0.45 0 0 1 27 15.45L27 15.55A0.45 0.45 0 0 0 27.45 16L28.55 16A0.45 0.45 0 0 0 29 15.55L29 14.45A0.45 0.45 0 0 0 28.55 14L28.45 14A0.45 0.45 0 0 1 28 13.55L28 13.45A0.45 0.45 0 0 0 27.55 13L27.45 13A0.45 0.45 0 0 0 27 13.45L27 13.55A0.45 0.45 0 0 1 26.55 14L26.45 14A0.45 0.45 0 0 1 26 13.55L26 13.45A0.45 0.45 0 0 0 25.55 13L24.45 13A0.45 0.45 0 0 1 24 12.55L24 12.45A0.45 0.45 0 0 1 24.45 12L25.55 12A0.45 0.45 0 0 0 26 11.55L26 11.45A0.45 0.45 0 0 1 26.45 11L26.55 11A0.45 0.45 0 0 0 27 10.55L27 10.45A0.45 0.45 0 0 1 27.45 10L27.55 10A0.45 0.45 0 0 0 28 9.55L28 9.45A0.45 0.45 0 0 0 27.55 9L27.45 9A0.45 0.45 0 0 1 27 8.55L27 8.45A0.45 0.45 0 0 0 26.55 8L22.45 8A0.45 0.45 0 0 0 22 8.45L22 8.55A0.45 0.45 0 0 0 22.45 9L23.55 9A0.45 0.45 0 0 1 24 9.45L24 9.55A0.45 0.45 0 0 0 24.45 10L24.55 10A0.45 0.45 0 0 1 25 10.45L25 10.55A0.45 0.45 0 0 1 24.55 11L19.45 11A0.45 0.45 0 0 0 19 11.45L19 11.55A0.45 0.45 0 0 0 19.45 12L19.55 12A0.45 0.45 0 0 1 20 12.45L20 12.55A0.45 0.45 0 0 0 20.45 13L20.55 13A0.45 0.45 0 0 1 21 13.45L21 13.55A0.45 0.45 0 0 0 21.45 14L22.55 14A0.45 0.45 0 0 0 23 13.55L23 13.45A0.45 0.45 0 0 1 23.45 13L23.55 13A0.45 0.45 0 0 1 24 13.45L24 13.55A0.45 0.45 0 0 0 24.45 14L24.55 14A0.45 0.45 0 0 1 25 14.45L25 14.55A0.45 0.45 0 0 1 24.55 15L19.45 15A0.45 0.45 0 0 1 19 14.55L19 13.45A0.45 0.45 0 0 0 18.55 13L18.45 13A0.45 0.45 0 0 0 18 13.45L18 13.55A0.45 0.45 0 0 1 17.55 14L16.45 14A0.45 0.45 0 0 1 16 13.55L16 13.45A0.45 0.45 0 0 1 16.45 13L16.55 13A0.45 0.45 0 0 0 17 12.55L17 11.45A0.45 0.45 0 0 1 17.45 11L17.55 11A0.45 0.45 0 0 0 18 10.55L18 10.45A0.45 0.45 0 0 0 17.55 10L17.45 10A0.45 0.45 0 0 1 17 9.55L17 9.45A0.45 0.45 0 0 1 17.45 9L17.55 9A0.45 0.45 0 0 0 18 8.55L18 8.45A0.45 0.45 0 0 1 18.45 8L19.55 8A0.45 0.45 0 0 1 20 8.45L20 8.55A0.45 0.45 0 0 1 19.55 9L19.45 9A0.45 0.45 0 0 0 19 9.45L19 9.55A0.45 0.45 0 0 0 19.45 10L20.55 10A0.45 0.45 0 0 0 21 9.55L21 6.45A0.45 0.45 0 0 0 20.55 6L20.45 6A0.45 0.45 0 0 0 20 6.45L20 6.55A0.45 0.45 0 0 1 19.55 7L19.45 7A0.45 0.45 0 0 1 19 6.55L19 6.45A0.45 0.45 0 0 0 18.55 6L18.45 6A0.45 0.45 0 0 1 18 5.55L18 5.45A0.45 0.45 0 0 1 18.45 5L18.55 5A0.45 0.45 0 0 0 19 4.55L19 3.45A0.45 0.45 0 0 1 19.45 3L19.55 3A0.45 0.45 0 0 1 20 3.45L20 4.55A0.45 0.45 0 0 0 20.45 5L20.55 5A0.45 0.45 0 0 0 21 4.55L21 3.45A0.45 0.45 0 0 0 20.55 3L20.45 3A0.45 0.45 0 0 1 20 2.55L20 1.45A0.45 0.45 0 0 1 20.45 1L20.55 1A0.45 0.45 0 0 0 21 0.55L21 0.45A0.45 0.45 0 0 0 20.55 0L19.45 0A0.45 0.45 0 0 0 19 0.45ZM12 1.45L12 1.55A0.45 0.45 0 0 0 12.45 2L12.55 2A0.45 0.45 0 0 0 13 1.55L13 1.45A0.45 0.45 0 0 0 12.55 1L12.45 1A0.45 0.45 0 0 0 12 1.45ZM14 2.45L14 2.55A0.45 0.45 0 0 0 14.45 3L14.55 3A0.45 0.45 0 0 0 15 2.55L15 2.45A0.45 0.45 0 0 0 14.55 2L14.45 2A0.45 0.45 0 0 0 14 2.45ZM9 3.45L9 4.55A0.45 0.45 0 0 0 9.45 5L10.55 5A0.45 0.45 0 0 0 11 4.55L11 4.45A0.45 0.45 0 0 0 10.55 4L10.45 4A0.45 0.45 0 0 1 10 3.55L10 3.45A0.45 0.45 0 0 0 9.55 3L9.45 3A0.45 0.45 0 0 0 9 3.45ZM12 4.45L12 5.55A0.45 0.45 0 0 1 11.55 6L11.45 6A0.45 0.45 0 0 0 11 6.45L11 6.55A0.45 0.45 0 0 0 11.45 7L11.55 7A0.45 0.45 0 0 0 12 6.55L12 6.45A0.45 0.45 0 0 1 12.45 6L12.55 6A0.45 0.45 0 0 1 13 6.45L13 6.55A0.45 0.45 0 0 0 13.45 7L13.55 7A0.45 0.45 0 0 1 14 7.45L14 7.55A0.45 0.45 0 0 0 14.45 8L14.55 8A0.45 0.45 0 0 0 15 7.55L15 7.45A0.45 0.45 0 0 1 15.45 7L15.55 7A0.45 0.45 0 0 1 16 7.45L16 8.55A0.45 0.45 0 0 0 16.45 9L16.55 9A0.45 0.45 0 0 0 17 8.55L17 7.45A0.45 0.45 0 0 1 17.45 7L17.55 7A0.45 0.45 0 0 0 18 6.55L18 6.45A0.45 0.45 0 0 0 17.55 6L17.45 6A0.45 0.45 0 0 0 17 6.45L17 6.55A0.45 0.45 0 0 1 16.55 7L16.45 7A0.45 0.45 0 0 1 16 6.55L16 6.45A0.45 0.45 0 0 0 15.55 6L15.45 6A0.45 0.45 0 0 0 15 6.45L15 6.55A0.45 0.45 0 0 1 14.55 7L14.45 7A0.45 0.45 0 0 1 14 6.55L14 6.45A0.45 0.45 0 0 0 13.55 6L13.45 6A0.45 0.45 0 0 1 13 5.55L13 4.45A0.45 0.45 0 0 0 12.55 4L12.45 4A0.45 0.45 0 0 0 12 4.45ZM16 4.45L16 4.55A0.45 0.45 0 0 0 16.45 5L17.55 5A0.45 0.45 0 0 0 18 4.55L18 4.45A0.45 0.45 0 0 0 17.55 4L16.45 4A0.45 0.45 0 0 0 16 4.45ZM9 6.45L9 7.55A0.45 0.45 0 0 0 9.45 8L9.55 8A0.45 0.45 0 0 0 10 7.55L10 6.45A0.45 0.45 0 0 0 9.55 6L9.45 6A0.45 0.45 0 0 0 9 6.45ZM6 9.45L6 9.55A0.45 0.45 0 0 0 6.45 10L6.55 10A0.45 0.45 0 0 1 7 10.45L7 10.55A0.45 0.45 0 0 1 6.55 11L6.45 11A0.45 0.45 0 0 0 6 11.45L6 11.55A0.45 0.45 0 0 0 6.45 12L7.55 12A0.45 0.45 0 0 1 8 12.45L8 13.55A0.45 0.45 0 0 0 8.45 14L8.55 14A0.45 0.45 0 0 0 9 13.55L9 11.45A0.45 0.45 0 0 0 8.55 11L8.45 11A0.45 0.45 0 0 1 8 10.55L8 10.45A0.45 0.45 0 0 0 7.55 10L7.45 10A0.45 0.45 0 0 1 7 9.55L7 9.45A0.45 0.45 0 0 0 6.55 9L6.45 9A0.45 0.45 0 0 0 6 9.45ZM12 9.45L12 9.55A0.45 0.45 0 0 1 11.55 10L11.45 10A0.45 0.45 0 0 0 11 10.45L11 10.55A0.45 0.45 0 0 0 11.45 11L12.55 11A0.45 0.45 0 0 0 13 10.55L13 9.45A0.45 0.45 0 0 0 12.55 9L12.45 9A0.45 0.45 0 0 0 12 9.45ZM26 9.45L26 9.55A0.45 0.45 0 0 0 26.45 10L26.55 10A0.45 0.45 0 0 0 27 9.55L27 9.45A0.45 0.45 0 0 0 26.55 9L26.45 9A0.45 0.45 0 0 0 26 9.45ZM14 11.45L14 11.55A0.45 0.45 0 0 0 14.45 12L14.55 12A0.45 0.45 0 0 0 15 11.55L15 11.45A0.45 0.45 0 0 0 14.55 11L14.45 11A0.45 0.45 0 0 0 14 11.45ZM28 11.45L28 11.55A0.45 0.45 0 0 0 28.45 12L28.55 12A0.45 0.45 0 0 0 29 11.55L29 11.45A0.45 0.45 0 0 0 28.55 11L28.45 11A0.45 0.45 0 0 0 28 11.45ZM21 12.45L21 12.55A0.45 0.45 0 0 0 21.45 13L21.55 13A0.45 0.45 0 0 0 22 12.55L22 12.45A0.45 0.45 0 0 0 21.55 12L21.45 12A0.45 0.45 0 0 0 21 12.45ZM0 13.45L0 15.55A0.45 0.45 0 0 0 0.45 16L0.55 16A0.45 0.45 0 0 0 1 15.55L1 13.45A0.45 0.45 0 0 0 0.55 13L0.45 13A0.45 0.45 0 0 0 0 13.45ZM6 13.45L6 13.55A0.45 0.45 0 0 0 6.45 14L6.55 14A0.45 0.45 0 0 0 7 13.55L7 13.45A0.45 0.45 0 0 0 6.55 13L6.45 13A0.45 0.45 0 0 0 6 13.45ZM11 13.45L11 13.55A0.45 0.45 0 0 1 10.55 14L10.45 14A0.45 0.45 0 0 0 10 14.45L10 14.55A0.45 0.45 0 0 1 9.55 15L6.45 15A0.45 0.45 0 0 0 6 15.45L6 15.55A0.45 0.45 0 0 0 6.45 16L8.55 16A0.45 0.45 0 0 1 9 16.45L9 16.55A0.45 0.45 0 0 0 9.45 17L9.55 17A0.45 0.45 0 0 1 10 17.45L10 17.55A0.45 0.45 0 0 1 9.55 18L7.45 18A0.45 0.45 0 0 1 7 17.55L7 17.45A0.45 0.45 0 0 0 6.55 17L6.45 17A0.45 0.45 0 0 0 6 17.45L6 17.55A0.45 0.45 0 0 0 6.45 18L6.55 18A0.45 0.45 0 0 1 7 18.45L7 18.55A0.45 0.45 0 0 1 6.55 19L6.45 19A0.45 0.45 0 0 0 6 19.45L6 19.55A0.45 0.45 0 0 0 6.45 20L7.55 20A0.45 0.45 0 0 1 8 20.45L8 20.55A0.45 0.45 0 0 0 8.45 21L8.55 21A0.45 0.45 0 0 1 9 21.45L9 21.55A0.45 0.45 0 0 0 9.45 22L9.55 22A0.45 0.45 0 0 1 10 22.45L10 22.55A0.45 0.45 0 0 1 9.55 23L9.45 23A0.45 0.45 0 0 0 9 23.45L9 23.55A0.45 0.45 0 0 0 9.45 24L9.55 24A0.45 0.45 0 0 1 10 24.45L10 26.55A0.45 0.45 0 0 0 10.45 27L11.55 27A0.45 0.45 0 0 0 12 26.55L12 25.45A0.45 0.45 0 0 1 12.45 25L13.55 25A0.45 0.45 0 0 0 14 24.55L14 24.45A0.45 0.45 0 0 1 14.45 24L14.55 24A0.45 0.45 0 0 0 15 23.55L15 23.45A0.45 0.45 0 0 0 14.55 23L14.45 23A0.45 0.45 0 0 0 14 23.45L14 23.55A0.45 0.45 0 0 1 13.55 24L13.45 24A0.45 0.45 0 0 1 13 23.55L13 23.45A0.45 0.45 0 0 0 12.55 23L12.45 23A0.45 0.45 0 0 1 12 22.55L12 22.45A0.45 0.45 0 0 1 12.45 22L12.55 22A0.45 0.45 0 0 0 13 21.55L13 21.45A0.45 0.45 0 0 1 13.45 21L15.55 21A0.45 0.45 0 0 1 16 21.45L16 21.55A0.45 0.45 0 0 0 16.45 22L19.55 22A0.45 0.45 0 0 0 20 21.55L20 20.45A0.45 0.45 0 0 0 19.55 20L19.45 20A0.45 0.45 0 0 1 19 19.55L19 19.45A0.45 0.45 0 0 1 19.45 19L19.55 19A0.45 0.45 0 0 0 20 18.55L20 18.45A0.45 0.45 0 0 1 20.45 18L20.55 18A0.45 0.45 0 0 1 21 18.45L21 18.55A0.45 0.45 0 0 0 21.45 19L22.55 19A0.45 0.45 0 0 0 23 18.55L23 18.45A0.45 0.45 0 0 1 23.45 18L23.55 18A0.45 0.45 0 0 1 24 18.45L24 18.55A0.45 0.45 0 0 0 24.45 19L24.55 19A0.45 0.45 0 0 0 25 18.55L25 18.45A0.45 0.45 0 0 0 24.55 18L24.45 18A0.45 0.45 0 0 1 24 17.55L24 17.45A0.45 0.45 0 0 0 23.55 17L23.45 17A0.45 0.45 0 0 0 23 17.45L23 17.55A0.45 0.45 0 0 1 22.55 18L21.45 18A0.45 0.45 0 0 1 21 17.55L21 17.45A0.45 0.45 0 0 1 21.45 17L21.55 17A0.45 0.45 0 0 0 22 16.55L22 16.45A0.45 0.45 0 0 0 21.55 16L19.45 16A0.45 0.45 0 0 1 19 15.55L19 15.45A0.45 0.45 0 0 0 18.55 15L16.45 15A0.45 0.45 0 0 0 16 15.45L16 16.55A0.45 0.45 0 0 0 16.45 17L16.55 17A0.45 0.45 0 0 1 17 17.45L17 17.55A0.45 0.45 0 0 1 16.55 18L15.45 18A0.45 0.45 0 0 1 15 17.55L15 17.45A0.45 0.45 0 0 0 14.55 17L14.45 17A0.45 0.45 0 0 1 14 16.55L14 16.45A0.45 0.45 0 0 1 14.45 16L14.55 16A0.45 0.45 0 0 0 15 15.55L15 15.45A0.45 0.45 0 0 0 14.55 15L14.45 15A0.45 0.45 0 0 0 14 15.45L14 15.55A0.45 0.45 0 0 1 13.55 16L13.45 16A0.45 0.45 0 0 1 13 15.55L13 15.45A0.45 0.45 0 0 0 12.55 15L11.45 15A0.45 0.45 0 0 1 11 14.55L11 14.45A0.45 0.45 0 0 1 11.45 14L11.55 14A0.45 0.45 0 0 0 12 13.55L12 13.45A0.45 0.45 0 0 0 11.55 13L11.45 13A0.45 0.45 0 0 0 11 13.45ZM11 16.45L11 16.55A0.45 0.45 0 0 0 11.45 17L11.55 17A0.45 0.45 0 0 1 12 17.45L12 17.55A0.45 0.45 0 0 1 11.55 18L11.45 18A0.45 0.45 0 0 0 11 18.45L11 19.55A0.45 0.45 0 0 1 10.55 20L10.45 20A0.45 0.45 0 0 1 10 19.55L10 19.45A0.45 0.45 0 0 0 9.55 19L9.45 19A0.45 0.45 0 0 0 9 19.45L9 19.55A0.45 0.45 0 0 0 9.45 20L9.55 20A0.45 0.45 0 0 1 10 20.45L10 21.55A0.45 0.45 0 0 0 10.45 22L11.55 22A0.45 0.45 0 0 0 12 21.55L12 21.45A0.45 0.45 0 0 1 12.45 21L12.55 21A0.45 0.45 0 0 0 13 20.55L13 20.45A0.45 0.45 0 0 0 12.55 20L12.45 20A0.45 0.45 0 0 1 12 19.55L12 19.45A0.45 0.45 0 0 1 12.45 19L12.55 19A0.45 0.45 0 0 0 13 18.55L13 17.45A0.45 0.45 0 0 0 12.55 17L12.45 17A0.45 0.45 0 0 1 12 16.55L12 16.45A0.45 0.45 0 0 0 11.55 16L11.45 16A0.45 0.45 0 0 0 11 16.45ZM18 16.45L18 16.55A0.45 0.45 0 0 0 18.45 17L18.55 17A0.45 0.45 0 0 0 19 16.55L19 16.45A0.45 0.45 0 0 0 18.55 16L18.45 16A0.45 0.45 0 0 0 18 16.45ZM0 17.45L0 20.55A0.45 0.45 0 0 0 0.45 21L0.55 21A0.45 0.45 0 0 0 1 20.55L1 17.45A0.45 0.45 0 0 0 0.55 17L0.45 17A0.45 0.45 0 0 0 0 17.45ZM17 18.45L17 18.55A0.45 0.45 0 0 1 16.55 19L16.45 19A0.45 0.45 0 0 0 16 19.45L16 20.55A0.45 0.45 0 0 0 16.45 21L16.55 21A0.45 0.45 0 0 0 17 20.55L17 19.45A0.45 0.45 0 0 1 17.45 19L18.55 19A0.45 0.45 0 0 0 19 18.55L19 18.45A0.45 0.45 0 0 0 18.55 18L17.45 18A0.45 0.45 0 0 0 17 18.45ZM14 19.45L14 19.55A0.45 0.45 0 0 0 14.45 20L14.55 20A0.45 0.45 0 0 0 15 19.55L15 19.45A0.45 0.45 0 0 0 14.55 19L14.45 19A0.45 0.45 0 0 0 14 19.45ZM11 20.45L11 20.55A0.45 0.45 0 0 0 11.45 21L11.55 21A0.45 0.45 0 0 0 12 20.55L12 20.45A0.45 0.45 0 0 0 11.55 20L11.45 20A0.45 0.45 0 0 0 11 20.45ZM18 20.45L18 20.55A0.45 0.45 0 0 0 18.45 21L18.55 21A0.45 0.45 0 0 0 19 20.55L19 20.45A0.45 0.45 0 0 0 18.55 20L18.45 20A0.45 0.45 0 0 0 18 20.45ZM21 21.45L21 23.55A0.45 0.45 0 0 0 21.45 24L23.55 24A0.45 0.45 0 0 0 24 23.55L24 21.45A0.45 0.45 0 0 0 23.55 21L21.45 21A0.45 0.45 0 0 0 21 21.45ZM25 21.45L25 21.55A0.45 0.45 0 0 0 25.45 22L26.55 22A0.45 0.45 0 0 0 27 21.55L27 21.45A0.45 0.45 0 0 0 26.55 21L25.45 21A0.45 0.45 0 0 0 25 21.45ZM22 22.45L22 22.55A0.45 0.45 0 0 0 22.45 23L22.55 23A0.45 0.45 0 0 0 23 22.55L23 22.45A0.45 0.45 0 0 0 22.55 22L22.45 22A0.45 0.45 0 0 0 22 22.45ZM16 23.45L16 24.55A0.45 0.45 0 0 0 16.45 25L16.55 25A0.45 0.45 0 0 0 17 24.55L17 24.45A0.45 0.45 0 0 1 17.45 24L18.55 24A0.45 0.45 0 0 0 19 23.55L19 23.45A0.45 0.45 0 0 0 18.55 23L16.45 23A0.45 0.45 0 0 0 16 23.45ZM11 24.45L11 24.55A0.45 0.45 0 0 0 11.45 25L11.55 25A0.45 0.45 0 0 0 12 24.55L12 24.45A0.45 0.45 0 0 0 11.55 24L11.45 24A0.45 0.45 0 0 0 11 24.45ZM18 26.45L18 28.55A0.45 0.45 0 0 0 18.45 29L19.55 29A0.45 0.45 0 0 0 20 28.55L20 28.45A0.45 0.45 0 0 0 19.55 28L19.45 28A0.45 0.45 0 0 1 19 27.55L19 26.45A0.45 0.45 0 0 0 18.55 26L18.45 26A0.45 0.45 0 0 0 18 26.45ZM26 26.45L26 26.55A0.45 0.45 0 0 1 25.55 27L25.45 27A0.45 0.45 0 0 0 25 27.45L25 27.55A0.45 0.45 0 0 1 24.55 28L24.45 28A0.45 0.45 0 0 0 24 28.45L24 28.55A0.45 0.45 0 0 0 24.45 29L26.55 29A0.45 0.45 0 0 0 27 28.55L27 27.45A0.45 0.45 0 0 1 27.45 27L27.55 27A0.45 0.45 0 0 1 28 27.45L28 27.55A0.45 0.45 0 0 0 28.45 28L28.55 28A0.45 0.45 0 0 0 29 27.55L29 27.45A0.45 0.45 0 0 0 28.55 27L28.45 27A0.45 0.45 0 0 1 28 26.55L28 26.45A0.45 0.45 0 0 0 27.55 26L26.45 26A0.45 0.45 0 0 0 26 26.45ZM16 27.45L16 27.55A0.45 0.45 0 0 0 16.45 28L16.55 28A0.45 0.45 0 0 0 17 27.55L17 27.45A0.45 0.45 0 0 0 16.55 27L16.45 27A0.45 0.45 0 0 0 16 27.45ZM13 28.45L13 28.55A0.45 0.45 0 0 0 13.45 29L14.55 29A0.45 0.45 0 0 0 15 28.55L15 28.45A0.45 0.45 0 0 0 14.55 28L13.45 28A0.45 0.45 0 0 0 13 28.45ZM21 28.45L21 28.55A0.45 0.45 0 0 0 21.45 29L22.55 29A0.45 0.45 0 0 0 23 28.55L23 28.45A0.45 0.45 0 0 0 22.55 28L21.45 28A0.45 0.45 0 0 0 21 28.45Z" fill="#000000"/></g></g></svg>
