<?xml version="1.0" encoding="UTF-8"?>
<svg xmlns="http://www.w3.org/2000/svg" version="1.1" width="1024" height="1024" viewBox="0 0 500 500"><rect x="0" y="0" width="500" height="500" fill="#ffffff"/><g transform="scale(16.129)"><g transform="translate(1,1)"><g><g transform="translate(3.5,3.5)"><path fill-rule="evenodd" d="M-3.5 -3.5L3.5 -3.5L3.5 3.5L-3.5 3.5ZM-2.5 -2.5L-2.5 2.5L2.5 2.5L2.5 -2.5Z" fill="#000000"/><path fill-rule="evenodd" d="M-1.5 -1.5L1.5 -1.5L1.5 1.5L-1.5 1.5Z" fill="#000000"/></g></g><g><g transform="translate(25.5,3.5)"><g transform="rotate(90)"><path fill-rule="evenodd" d="M-3.5 -3.5L3.5 -3.5L3.5 3.5L-3.5 3.5ZM-2.5 -2.5L-2.5 2.5L2.5 2.5L2.5 -2.5Z" fill="#000000"/><path fill-rule="evenodd" d="M-1.5 -1.5L1.5 -1.5L1.5 1.5L-1.5 1.5Z" fill="#000000"/></g></g></g><g><g transform="translate(3.5,25.5)"><g transform="rotate(-90)"><path fill-rule="evenodd" d="M-3.5 -3.5L3.5 -3.5L3.5 3.5L-3.5 3.5ZM-2.5 -2.5L-2.5 2.5L2.5 2.5L2.5 -2.5Z" fill="#000000"/><path fill-rule="evenodd" d="M-1.5 -1.5L1.5 -1.5L1.5 1.5L-1.5 1.5Z" fill="#000000"/></g></g></g><path fill-rule="evenodd" d="M8 0.45L8 0.55A0.45 0.45 0 0 0 8.45 1L8.55 1A0.45 0.45 0 0 0 9 0.55L9 0.45A0.45 0.45 0 0 0 8.55 0L8.45 0A0.45 0.45 0 0 0 8 0.45ZM13 0.45L13 1.55A0.45 0.45 0 0 1 12.55 2L12.45 2A0.45 0.45 0 0 1 12 1.55L12 1.45A0.45 0.45 0 0 0 11.55 1L10.45 1A0.45 0.45 0 0 0 10 1.45L10 1.55A0.45 0.45 0 0 1 9.55 2L9.45 2A0.45 0.45 0 0 0 9 2.45L9 2.55A0.45 0.45 0 0 1 8.55 3L8.45 3A0.45 0.45 0 0 0 8 3.45L8 7.55A0.45 0.45 0 0 1 7.55 8L6.45 8A0.45 0.45 0 0 0 6 8.45L6 8.55A0.45 0.45 0 0 1 5.55 9L5.45 9A0.45 0.45 0 0 1 5 8.55L5 8.45A0.45 0.45 0 0 0 4.55 8L4.45 8A0.45 0.45 0 0 0 4 8.45L4 8.55A0.45 0.45 0 0 0 4.45 9L4.55 9A0.45 0.45 0 0 1 5 9.45L5 9.55A0.45 0.45 0 0 0 5.45 10L5.55 10A0.45 0.45 0 0 1 6 10.45L6 10.55A0.45 0.45 0 0 0 6.45 11L6.55 11A0.45 0.45 0 0 1 7 11.45L7 11.55A0.45 0.45 0 0 1 6.55 12L5.45 12A0.45 0.45 0 0 1 5 11.55L5 11.45A0.45 0.45 0 0 0 4.55 11L4.45 11A0.45 0.45 0 0 1 4 10.55L4 10.45A0.45 0.45 0 0 0 3.55 10L3.45 10A0.45 0.45 0 0 1 3 9.55L3 9.45A0.45 0.45 0 0 0 2.55 9L2.45 9A0.45 0.45 0 0 0 2 9.45L2 9.55A0.45 0.45 0 0 0 2.45 10L2.55 10A0.45 0.45 0 0 1 3 10.45L3 10.55A0.45 0.45 0 0 0 3.45 11L3.55 11A0.45 0.45 0 0 1 4 11.45L4 11.55A0.45 0.45 0 0 1 3.55 12L2.45 12A0.45 0.45 0 0 1 2 11.55L2 11.45A0.45 0.45 0 0 0 1.55 11L0.45 11A0.45 0.45 0 0 0 0 11.45L0 11.55A0.45 0.45 0 0 0 0.45 12L1.55 12A0.45 0.45 0 0 1 2 12.45L2 14.55A0.45 0.45 0 0 1 1.55 15L0.45 15A0.45 0.45 0 0 0 0 15.45L0 15.55A0.45 0.45 0 0 0 0.45 16L0.55 16A0.45 0.45 0 0 1 1 16.45L1 16.55A0.45 0.45 0 0 1 0.55 17L0.45 17A0.45 0.45 0 0 0 0 17.45L0 17.55A0.45 0.45 0 0 0 0.45 18L1.55 18A0.45 0.45 0 0 1 2 18.45L2 19.55A0.45 0.45 0 0 1 1.55 20L0.45 20A0.45 0.45 0 0 0 0 20.45L0 20.55A0.45 0.45 0 0 0 0.45 21L1.55 21A0.45 0.45 0 0 0 2 20.55L2 20.45A0.45 0.45 0 0 1 2.45 20L2.55 20A0.45 0.45 0 0 0 3 19.55L3 19.45A0.45 0.45 0 0 1 3.45 19L3.55 19A0.45 0.45 0 0 1 4 19.45L4 19.55A0.45 0.45 0 0 0 4.45 20L4.55 20A0.45 0.45 0 0 0 5 19.55L5 18.45A0.45 0.45 0 0 0 4.55 18L3.45 18A0.45 0.45 0 0 1 3 17.55L3 17.45A0.45 0.45 0 0 1 3.45 17L3.55 17A0.45 0.45 0 0 0 4 16.55L4 16.45A0.45 0.45 0 0 0 3.55 16L3.45 16A0.45 0.45 0 0 1 3 15.55L3 15.45A0.45 0.45 0 0 1 3.45 15L4.55 15A0.45 0.45 0 0 1 5 15.45L5 15.55A0.45 0.45 0 0 0 5.45 16L5.55 16A0.45 0.45 0 0 1 6 16.45L6 16.55A0.45 0.45 0 0 0 6.45 17L8.55 17A0.45 0.45 0 0 1 9 17.45L9 17.55A0.45 0.45 0 0 1 8.55 18L6.45 18A0.45 0.45 0 0 0 6 18.45L6 18.55A0.45 0.45 0 0 0 6.45 19L7.55 19A0.45 0.45 0 0 1 8 19.45L8 19.55A0.45 0.45 0 0 1 7.55 20L6.45 20A0.45 0.45 0 0 0 6 20.45L6 20.55A0.45 0.45 0 0 0 6.45 21L7.55 21A0.45 0.45 0 0 1 8 21.45L8 22.55A0.45 0.45 0 0 0 8.45 23L8.55 23A0.45 0.45 0 0 1 9 23.45L9 23.55A0.45 0.45 0 0 1 8.55 24L8.45 24A0.45 0.45 0 0 0 8 24.45L8 24.55A0.45 0.45 0 0 0 8.45 25L8.55 25A0.45 0.45 0 0 0 9 24.55L9 24.45A0.45 0.45 0 0 1 9.45 24L10.55 24A0.45 0.45 0 0 1 11 24.45L11 24.55A0.45 0.45 0 0 1 10.55 25L10.45 25A0.45 0.45 0 0 0 10 25.45L10 25.55A0.45 0.45 0 0 1 9.55 26L9.45 26A0.45 0.45 0 0 0 9 26.45L9 26.55A0.45 0.45 0 0 0 9.45 27L10.55 27A0.45 0.45 0 0 0 11 26.55L11 26.45A0.45 0.45 0 0 1 11.45 26L11.55 26A0.45 0.45 0 0 0 12 25.55L12 23.45A0.45 0.45 0 0 1 12.45 23L12.55 23A0.45 0.45 0 0 1 13 23.45L13 25.55A0.45 0.45 0 0 0 13.45 26L13.55 26A0.45 0.45 0 0 1 14 26.45L14 26.55A0.45 0.45 0 0 1 13.55 27L12.45 27A0.45 0.45 0 0 0 12 27.45L12 28.55A0.45 0.45 0 0 0 12.45 29L12.55 29A0.45 0.45 0 0 0 13 28.55L13 28.45A0.45 0.45 0 0 1 13.45 28L13.55 28A0.45 0.45 0 0 1 14 28.45L14 28.55A0.45 0.45 0 0 0 14.45 29L15.55 29A0.45 0.45 0 0 0 16 28.55L16 28.45A0.45 0.45 0 0 0 15.55 28L14.45 28A0.45 0.45 0 0 1 14 27.55L14 27.45A0.45 0.45 0 0 1 14.45 27L14.55 27A0.45 0.45 0 0 0 15 26.55L15 25.45A0.45 0.45 0 0 0 14.55 25L14.45 25A0.45 0.45 0 0 1 14 24.55L14 23.45A0.45 0.45 0 0 1 14.45 23L14.55 23A0.45 0.45 0 0 1 15 23.45L15 23.55A0.45 0.45 0 0 0 15.45 24L16.55 24A0.45 0.45 0 0 1 17 24.45L17 24.55A0.45 0.45 0 0 1 16.55 25L16.45 25A0.45 0.45 0 0 0 16 25.45L16 26.55A0.45 0.45 0 0 0 16.45 27L16.55 27A0.45 0.45 0 0 1 17 27.45L17 27.55A0.45 0.45 0 0 0 17.45 28L17.55 28A0.45 0.45 0 0 1 18 28.45L18 28.55A0.45 0.45 0 0 0 18.45 29L18.55 29A0.45 0.45 0 0 0 19 28.55L19 28.45A0.45 0.45 0 0 0 18.55 28L18.45 28A0.45 0.45 0 0 1 18 27.55L18 26.45A0.45 0.45 0 0 1 18.45 26L19.55 26A0.45 0.45 0 0 0 20 25.55L20 25.45A0.45 0.45 0 0 1 20.45 25L20.55 25A0.45 0.45 0 0 1 21 25.45L21 25.55A0.45 0.45 0 0 0 21.45 26L21.55 26A0.45 0.45 0 0 1 22 26.45L22 28.55A0.45 0.45 0 0 0 22.45 29L22.55 29A0.45 0.45 0 0 0 23 28.55L23 28.45A0.45 0.45 0 0 1 23.45 28L23.55 28A0.45 0.45 0 0 1 24 28.45L24 28.55A0.45 0.45 0 0 0 24.45 29L24.55 29A0.45 0.45 0 0 0 25 28.55L25 28.45A0.45 0.45 0 0 1 25.45 28L26.55 28A0.45 0.45 0 0 1 27 28.45L27 28.55A0.45 0.45 0 0 0 27.45 29L27.55 29A0.45 0.45 0 0 0 28 28.55L28 28.45A0.45 0.45 0 0 0 27.55 28L27.45 28A0.45 0.45 0 0 1 27 27.55L27 27.45A0.45 0.45 0 0 1 27.45 27L28.55 27A0.45 0.45 0 0 0 29 26.55L29 26.45A0.45 0.45 0 0 0 28.55 26L28.45 26A0.45 0.45 0 0 1 28 25.55L28 25.45A0.45 0.45 0 0 1 28.45 25L28.55 25A0.45 0.45 0 0 0 29 24.55L29 24.45A0.45 0.45 0 0 0 28.55 24L28.45 24A0.45 0.45 0 0 1 28 23.55L28 23.45A0.45 0.45 0 0 1 28.45 23L28.55 23A0.45 0.45 0 0 0 29 22.55L29 22.45A0.45 0.45 0 0 0 28.55 22L28.45 22A0.45 0.45 0 0 0 28 22.45L28 22.55A0.45 0.45 0 0 1 27.55 23L27.45 23A0.45 0.45 0 0 1 27 22.55L27 21.45A0.45 0.45 0 0 0 26.55 21L25.45 21A0.45 0.45 0 0 1 25 20.55L25 20.45A0.45 0.45 0 0 0 24.55 20L22.45 20A0.45 0.45 0 0 1 22 19.55L22 19.45A0.45 0.45 0 0 1 22.45 19L22.55 19A0.45 0.45 0 0 0 23 18.55L23 17.45A0.45 0.45 0 0 1 23.45 17L23.55 17A0.45 0.45 0 0 1 24 17.45L24 18.55A0.45 0.45 0 0 0 24.45 19L27.55 19A0.45 0.45 0 0 1 28 19.45L28 19.55A0.45 0.45 0 0 0 28.45 20L28.55 20A0.45 0.45 0 0 0 29 19.55L29 19.45A0.45 0.45 0 0 0 28.55 19L28.45 19A0.45 0.45 0 0 1 28 18.55L28 18.45A0.45 0.45 0 0 1 28.45 18L28.55 18A0.45 0.45 0 0 0 29 17.55L29 17.45A0.45 0.45 0 0 0 28.55 17L28.45 17A0.45 0.45 0 0 1 28 16.55L28 14.45A0.45 0.45 0 0 0 27.55 14L27.45 14A0.45 0.45 0 0 1 27 13.55L27 13.45A0.45 0.45 0 0 1 27.45 13L27.55 13A0.45 0.45 0 0 0 28 12.55L28 12.45A0.45 0.45 0 0 0 27.55 12L26.45 12A0.45 0.45 0 0 1 26 11.55L26 11.45A0.45 0.45 0 0 1 26.45 11L26.55 11A0.45 0.45 0 0 0 27 10.55L27 9.45A0.45 0.45 0 0 0 26.55 9L26.45 9A0.45 0.45 0 0 1 26 8.55L26 8.45A0.45 0.45 0 0 0 25.55 8L21.45 8A0.45 0.45 0 0 1 21 7.55L21 5.45A0.45 0.45 0 0 0 20.55 5L20.45 5A0.45 0.45 0 0 1 20 4.55L20 4.45A0.45 0.45 0 0 1 20.45 4L20.55 4A0.45 0.45 0 0 0 21 3.55L21 3.45A0.45 0.45 0 0 0 20.55 3L20.45 3A0.45 0.45 0 0 1 20 2.55L20 2.45A0.45 0.45 0 0 1 20.45 2L20.55 2A0.45 0.45 0 0 0 21 1.55L21 1.45A0.45 0.45 0 0 0 20.55 1L20.45 1A0.45 0.45 0 0 0 20 1.45L20 1.55A0.45 0.45 0 0 1 19.55 2L19.45 2A0.45 0.45 0 0 0 19 2.45L19 2.55A0.45 0.45 0 0 1 18.55 3L18.45 3A0.45 0.45 0 0 1 18 2.55L18 1.45A0.45 0.45 0 0 0 17.55 1L17.45 1A0.45 0.45 0 0 1 17 0.55L17 0.45A0.45 0.45 0 0 0 16.55 0L16.45 0A0.45 0.45 0 0 0 16 0.45L16 0.55A0.45 0.45 0 0 1 15.55 1L15.45 1A0.45 0.45 0 0 1 15 0.55L15 0.45A0.45 0.45 0 0 0 14.55 0L13.45 0A0.45 0.45 0 0 0 13 0.45ZM16 1.45L16 1.55A0.45 0.45 0 0 1 15.55 2L15.45 2A0.45 0.45 0 0 0 15 2.45L15 2.55A0.45 0.45 0 0 1 14.55 3L14.45 3A0.45 0.45 0 0 1 14 2.55L14 2.45A0.45 0.45 0 0 0 13.55 2L13.45 2A0.45 0.45 0 0 0 13 2.45L13 3.55A0.45 0.45 0 0 1 12.55 4L9.45 4A0.45 0.45 0 0 0 9 4.45L9 6.55A0.45 0.45 0 0 0 9.45 7L9.55 7A0.45 0.45 0 0 1 10 7.45L10 8.55A0.45 0.45 0 0 0 10.45 9L10.55 9A0.45 0.45 0 0 0 11 8.55L11 8.45A0.45 0.45 0 0 1 11.45 8L12.55 8A0.45 0.45 0 0 0 13 7.55L13 7.45A0.45 0.45 0 0 1 13.45 7L13.55 7A0.45 0.45 0 0 1 14 7.45L14 8.55A0.45 0.45 0 0 0 14.45 9L14.55 9A0.45 0.45 0 0 1 15 9.45L15 9.55A0.45 0.45 0 0 1 14.55 10L13.45 10A0.45 0.45 0 0 1 13 9.55L13 9.45A0.45 0.45 0 0 0 12.55 9L12.45 9A0.45 0.45 0 0 0 12 9.45L12 9.55A0.45 0.45 0 0 0 12.45 10L12.55 10A0.45 0.45 0 0 1 13 10.45L13 11.55A0.45 0.45 0 0 0 13.45 12L13.55 12A0.45 0.45 0 0 0 14 11.55L14 11.45A0.45 0.45 0 0 1 14.45 11L14.55 11A0.45 0.45 0 0 1 15 11.45L15 11.55A0.45 0.45 0 0 0 15.45 12L16.55 12A0.45 0.45 0 0 1 17 12.45L17 12.55A0.45 0.45 0 0 1 16.55 13L13.45 13A0.45 0.45 0 0 0 13 13.45L13 13.55A0.45 0.45 0 0 1 12.55 14L12.45 14A0.45 0.45 0 0 0 12 14.45L12 14.55A0.45 0.45 0 0 0 12.45 15L12.55 15A0.45 0.45 0 0 0 13 14.55L13 14.45A0.45 0.45 0 0 1 13.45 14L15.55 14A0.45 0.45 0 0 1 16 14.45L16 14.55A0.45 0.45 0 0 0 16.45 15L17.55 15A0.45 0.45 0 0 0 18 14.55L18 11.45A0.45 0.45 0 0 0 17.55 11L16.45 11A0.45 0.45 0 0 1 16 10.55L16 9.45A0.45 0.45 0 0 1 16.45 9L16.55 9A0.45 0.45 0 0 1 17 9.45L17 9.55A0.45 0.45 0 0 0 17.45 10L18.55 10A0.45 0.45 0 0 1 19 10.45L19 10.55A0.45 0.45 0 0 0 19.45 11L21.55 11A0.45 0.45 0 0 1 22 11.45L22 11.55A0.45 0.45 0 0 0 22.45 12L23.55 12A0.45 0.45 0 0 1 24 12.45L24 12.55A0.45 0.45 0 0 1 23.55 13L23.45 13A0.45 0.45 0 0 0 23 13.45L23 13.55A0.45 0.45 0 0 0 23.45 14L23.55 14A0.45 0.45 0 0 0 24 13.55L24 13.45A0.45 0.45 0 0 1 24.45 13L24.55 13A0.45 0.45 0 0 1 25 13.45L25 13.55A0.45 0.45 0 0 0 25.45 14L25.55 14A0.45 0.45 0 0 0 26 13.55L26 13.45A0.45 0.45 0 0 0 25.55 13L25.45 13A0.45 0.45 0 0 1 25 12.55L25 11.45A0.45 0.45 0 0 0 24.55 11L22.45 11A0.45 0.45 0 0 1 22 10.55L22 10.45A0.45 0.45 0 0 1 22.45 10L23.55 10A0.45 0.45 0 0 0 24 9.55L24 9.45A0.45 0.45 0 0 0 23.55 9L22.45 9A0.45 0.45 0 0 0 22 9.45L22 9.55A0.45 0.45 0 0 1 21.55 10L21.45 10A0.45 0.45 0 0 1 21 9.55L21 8.45A0.45 0.45 0 0 0 20.55 8L20.45 8A0.45 0.45 0 0 0 20 8.45L20 8.55A0.45 0.45 0 0 1 19.55 9L19.45 9A0.45 0.45 0 0 1 19 8.55L19 8.45A0.45 0.45 0 0 0 18.55 8L15.45 8A0.45 0.45 0 0 1 15 7.55L15 7.45A0.45 0.45 0 0 1 15.45 7L15.55 7A0.45 0.45 0 0 0 16 6.55L16 5.45A0.45 0.45 0 0 1 16.45 5L18.55 5A0.45 0.45 0 0 0 19 4.55L19 4.45A0.45 0.45 0 0 1 19.45 4L19.55 4A0.45 0.45 0 0 0 20 3.55L20 3.45A0.45 0.45 0 0 0 19.55 3L19.45 3A0.45 0.45 0 0 0 19 3.45L19 3.55A0.45 0.45 0 0 1 18.55 4L18.45 4A0.45 0.45 0 0 1 18 3.55L18 3.45A0.45 0.45 0 0 0 17.55 3L17.45 3A0.45 0.45 0 0 1 17 2.55L17 1.45A0.45 0.45 0 0 0 16.55 1L16.45 1A0.45 0.45 0 0 0 16 1.45ZM10 2.45L10 2.55A0.45 0.45 0 0 0 10.45 3L11.55 3A0.45 0.45 0 0 0 12 2.55L12 2.45A0.45 0.45 0 0 0 11.55 2L10.45 2A0.45 0.45 0 0 0 10 2.45ZM10 5.45L10 6.55A0.45 0.45 0 0 0 10.45 7L10.55 7A0.45 0.45 0 0 0 11 6.55L11 5.45A0.45 0.45 0 0 0 10.55 5L10.45 5A0.45 0.45 0 0 0 10 5.45ZM12 6.45L12 6.55A0.45 0.45 0 0 0 12.45 7L12.55 7A0.45 0.45 0 0 0 13 6.55L13 6.45A0.45 0.45 0 0 0 12.55 6L12.45 6A0.45 0.45 0 0 0 12 6.45ZM14 6.45L14 6.55A0.45 0.45 0 0 0 14.45 7L14.55 7A0.45 0.45 0 0 0 15 6.55L15 6.45A0.45 0.45 0 0 0 14.55 6L14.45 6A0.45 0.45 0 0 0 14 6.45ZM17 6.45L17 6.55A0.45 0.45 0 0 0 17.45 7L17.55 7A0.45 0.45 0 0 0 18 6.55L18 6.45A0.45 0.45 0 0 0 17.55 6L17.45 6A0.45 0.45 0 0 0 17 6.45ZM19 6.45L19 6.55A0.45 0.45 0 0 0 19.45 7L19.55 7A0.45 0.45 0 0 0 20 6.55L20 6.45A0.45 0.45 0 0 0 19.55 6L19.45 6A0.45 0.45 0 0 0 19 6.45ZM0 8.45L0 8.55A0.45 0.45 0 0 0 0.45 9L0.55 9A0.45 0.45 0 0 0 1 8.55L1 8.45A0.45 0.45 0 0 0 0.55 8L0.45 8A0.45 0.45 0 0 0 0 8.45ZM28 8.45L28 8.55A0.45 0.45 0 0 0 28.45 9L28.55 9A0.45 0.45 0 0 0 29 8.55L29 8.45A0.45 0.45 0 0 0 28.55 8L28.45 8A0.45 0.45 0 0 0 28 8.45ZM6 9.45L6 9.55A0.45 0.45 0 0 0 6.45 10L7.55 10A0.45 0.45 0 0 1 8 10.45L8 11.55A0.45 0.45 0 0 0 8.45 12L10.55 12A0.45 0.45 0 0 0 11 11.55L11 10.45A0.45 0.45 0 0 0 10.55 10L9.45 10A0.45 0.45 0 0 1 9 9.55L9 9.45A0.45 0.45 0 0 0 8.55 9L6.45 9A0.45 0.45 0 0 0 6 9.45ZM25 9.45L25 9.55A0.45 0.45 0 0 0 25.45 10L25.55 10A0.45 0.45 0 0 0 26 9.55L26 9.45A0.45 0.45 0 0 0 25.55 9L25.45 9A0.45 0.45 0 0 0 25 9.45ZM28 10.45L28 10.55A0.45 0.45 0 0 0 28.45 11L28.55 11A0.45 0.45 0 0 0 29 10.55L29 10.45A0.45 0.45 0 0 0 28.55 10L28.45 10A0.45 0.45 0 0 0 28 10.45ZM20 12.45L20 12.55A0.45 0.45 0 0 0 20.45 13L20.55 13A0.45 0.45 0 0 1 21 13.45L21 13.55A0.45 0.45 0 0 1 20.55 14L19.45 14A0.45 0.45 0 0 0 19 14.45L19 14.55A0.45 0.45 0 0 0 19.45 15L21.55 15A0.45 0.45 0 0 1 22 15.45L22 15.55A0.45 0.45 0 0 0 22.45 16L23.55 16A0.45 0.45 0 0 1 24 16.45L24 16.55A0.45 0.45 0 0 0 24.45 17L24.55 17A0.45 0.45 0 0 1 25 17.45L25 17.55A0.45 0.45 0 0 0 25.45 18L25.55 18A0.45 0.45 0 0 0 26 17.55L26 17.45A0.45 0.45 0 0 0 25.55 17L25.45 17A0.45 0.45 0 0 1 25 16.55L25 16.45A0.45 0.45 0 0 1 25.45 16L26.55 16A0.45 0.45 0 0 0 27 15.55L27 15.45A0.45 0.45 0 0 0 26.55 15L22.45 15A0.45 0.45 0 0 1 22 14.55L22 13.45A0.45 0.45 0 0 0 21.55 13L21.45 13A0.45 0.45 0 0 1 21 12.55L21 12.45A0.45 0.45 0 0 0 20.55 12L20.45 12A0.45 0.45 0 0 0 20 12.45ZM0 13.45L0 13.55A0.45 0.45 0 0 0 0.45 14L0.55 14A0.45 0.45 0 0 0 1 13.55L1 13.45A0.45 0.45 0 0 0 0.55 13L0.45 13A0.45 0.45 0 0 0 0 13.45ZM3 13.45L3 13.55A0.45 0.45 0 0 0 3.45 14L3.55 14A0.45 0.45 0 0 0 4 13.55L4 13.45A0.45 0.45 0 0 0 3.55 13L3.45 13A0.45 0.45 0 0 0 3 13.45ZM5 13.45L5 14.55A0.45 0.45 0 0 0 5.45 15L5.55 15A0.45 0.45 0 0 1 6 15.45L6 15.55A0.45 0.45 0 0 0 6.45 16L8.55 16A0.45 0.45 0 0 0 9 15.55L9 15.45A0.45 0.45 0 0 1 9.45 15L9.55 15A0.45 0.45 0 0 0 10 14.55L10 14.45A0.45 0.45 0 0 0 9.55 14L9.45 14A0.45 0.45 0 0 1 9 13.55L9 13.45A0.45 0.45 0 0 0 8.55 13L8.45 13A0.45 0.45 0 0 0 8 13.45L8 13.55A0.45 0.45 0 0 1 7.55 14L7.45 14A0.45 0.45 0 0 1 7 13.55L7 13.45A0.45 0.45 0 0 0 6.55 13L5.45 13A0.45 0.45 0 0 0 5 13.45ZM6 14.45L6 14.55A0.45 0.45 0 0 0 6.45 15L6.55 15A0.45 0.45 0 0 0 7 14.55L7 14.45A0.45 0.45 0 0 0 6.55 14L6.45 14A0.45 0.45 0 0 0 6 14.45ZM8 14.45L8 14.55A0.45 0.45 0 0 0 8.45 15L8.55 15A0.45 0.45 0 0 0 9 14.55L9 14.45A0.45 0.45 0 0 0 8.55 14L8.45 14A0.45 0.45 0 0 0 8 14.45ZM14 15.45L14 16.55A0.45 0.45 0 0 0 14.45 17L14.55 17A0.45 0.45 0 0 1 15 17.45L15 17.55A0.45 0.45 0 0 1 14.55 18L13.45 18A0.45 0.45 0 0 0 13 18.45L13 19.55A0.45 0.45 0 0 0 13.45 20L13.55 20A0.45 0.45 0 0 0 14 19.55L14 19.45A0.45 0.45 0 0 1 14.45 19L14.55 19A0.45 0.45 0 0 1 15 19.45L15 19.55A0.45 0.45 0 0 0 15.45 20L17.55 20A0.45 0.45 0 0 1 18 20.45L18 20.55A0.45 0.45 0 0 1 17.55 21L13.45 21A0.45 0.45 0 0 0 13 21.45L13 21.55A0.45 0.45 0 0 0 13.45 22L15.55 22A0.45 0.45 0 0 1 16 22.45L16 22.55A0.45 0.45 0 0 0 16.45 23L16.55 23A0.45 0.45 0 0 0 17 22.55L17 22.45A0.45 0.45 0 0 1 17.45 22L18.55 22A0.45 0.45 0 0 0 19 21.55L19 19.45A0.45 0.45 0 0 1 19.45 19L19.55 19A0.45 0.45 0 0 0 20 18.55L20 18.45A0.45 0.45 0 0 0 19.55 18L19.45 18A0.45 0.45 0 0 1 19 17.55L19 17.45A0.45 0.45 0 0 0 18.55 17L18.45 17A0.45 0.45 0 0 1 18 16.55L18 16.45A0.45 0.45 0 0 0 17.55 16L15.45 16A0.45 0.45 0 0 1 15 15.55L15 15.45A0.45 0.45 0 0 0 14.55 15L14.45 15A0.45 0.45 0 0 0 14 15.45ZM11 16.45L11 16.55A0.45 0.45 0 0 1 10.55 17L10.45 17A0.45 0.45 0 0 0 10 17.45L10 18.55A0.45 0.45 0 0 1 9.55 19L9.45 19A0.45 0.45 0 0 0 9 19.45L9 19.55A0.45 0.45 0 0 1 8.55 20L8.45 20A0.45 0.45 0 0 0 8 20.45L8 20.55A0.45 0.45 0 0 0 8.45 21L8.55 21A0.45 0.45 0 0 1 9 21.45L9 22.55A0.45 0.45 0 0 0 9.45 23L9.55 23A0.45 0.45 0 0 0 10 22.55L10 19.45A0.45 0.45 0 0 1 10.45 19L10.55 19A0.45 0.45 0 0 1 11 19.45L11 19.55A0.45 0.45 0 0 0 11.45 20L11.55 20A0.45 0.45 0 0 0 12 19.55L12 19.45A0.45 0.45 0 0 0 11.55 19L11.45 19A0.45 0.45 0 0 1 11 18.55L11 17.45A0.45 0.45 0 0 1 11.45 17L12.55 17A0.45 0.45 0 0 0 13 16.55L13 16.45A0.45 0.45 0 0 0 12.55 16L11.45 16A0.45 0.45 0 0 0 11 16.45ZM16 17.45L16 18.55A0.45 0.45 0 0 0 16.45 19L18.55 19A0.45 0.45 0 0 0 19 18.55L19 18.45A0.45 0.45 0 0 0 18.55 18L17.45 18A0.45 0.45 0 0 1 17 17.55L17 17.45A0.45 0.45 0 0 0 16.55 17L16.45 17A0.45 0.45 0 0 0 16 17.45ZM21 17.45L21 18.55A0.45 0.45 0 0 0 21.45 19L21.55 19A0.45 0.45 0 0 0 22 18.55L22 17.45A0.45 0.45 0 0 0 21.55 17L21.45 17A0.45 0.45 0 0 0 21 17.45ZM11 21.45L11 22.55A0.45 0.45 0 0 0 11.45 23L11.55 23A0.45 0.45 0 0 0 12 22.55L12 21.45A0.45 0.45 0 0 0 11.55 21L11.45 21A0.45 0.45 0 0 0 11 21.45ZM21 21.45L21 23.55A0.45 0.45 0 0 0 21.45 24L23.55 24A0.45 0.45 0 0 0 24 23.55L24 21.45A0.45 0.45 0 0 0 23.55 21L21.45 21A0.45 0.45 0 0 0 21 21.45ZM22 22.45L22 22.55A0.45 0.45 0 0 0 22.45 23L22.55 23A0.45 0.45 0 0 0 23 22.55L23 22.45A0.45 0.45 0 0 0 22.55 22L22.45 22A0.45 0.45 0 0 0 22 22.45ZM25 23.45L25 23.55A0.45 0.45 0 0 0 25.45 24L25.55 24A0.45 0.45 0 0 1 26 24.45L26 24.55A0.45 0.45 0 0 0 26.45 25L27.55 25A0.45 0.45 0 0 0 28 24.55L28 24.45A0.45 0.45 0 0 0 27.55 24L26.45 24A0.45 0.45 0 0 1 26 23.55L26 23.45A0.45 0.45 0 0 0 25.55 23L25.45 23A0.45 0.45 0 0 0 25 23.45ZM19 24.45L19 24.55A0.45 0.45 0 0 0 19.45 25L19.55 25A0.45 0.45 0 0 0 20 24.55L20 24.45A0.45 0.45 0 0 0 19.55 24L19.45 24A0.45 0.45 0 0 0 19 24.45ZM17 25.45L17 25.55A0.45 0.45 0 0 0 17.45 26L17.55 26A0.45 0.45 0 0 0 18 25.55L18 25.45A0.45 0.45 0 0 0 17.55 25L17.45 25A0.45 0.45 0 0 0 17 25.45ZM22 25.45L22 25.55A0.45 0.45 0 0 0 22.45 26L22.55 26A0.45 0.45 0 0 1 23 26.45L23 26.55A0.45 0.45 0 0 0 23.45 27L23.55 27A0.45 0.45 0 0 0 24 26.55L24 26.45A0.45 0.45 0 0 1 24.45 26L24.55 26A0.45 0.45 0 0 1 25 26.45L25 26.55A0.45 0.45 0 0 0 25.45 27L25.55 27A0.45 0.45 0 0 0 26 26.55L26 26.45A0.45 0.45 0 0 0 25.55 26L25.45 26A0.45 0.45 0 0 1 25 25.55L25 25.45A0.45 0.45 0 0 0 24.55 25L24.45 25A0.45 0.45 0 0 0 24 25.45L24 25.55A0.45 0.45 0 0 1 23.55 26L23.45 26A0.45 0.45 0 0 1 23 25.55L23 25.45A0.45 0.45 0 0 0 22.55 25L22.45 25A0.45 0.45 0 0 0 22 25.45ZM8 28.45L8 28.55A0.45 0.45 0 0 0 8.45 29L8.55 29A0.45 0.45 0 0 0 9 28.55L9 28.45A0.45 0.45 0 0 0 8.55 28L8.45 28A0.45 0.45 0 0 0 8 28.45ZM10 28.45L10 28.55A0.45 0.45 0 0 0 10.45 29L10.55 29A0.45 0.45 0 0 0 11 28.55L11 28.45A0.45 0.45 0 0 0 10.55 28L10.45 28A0.45 0.45 0 0 0 10 28.45ZM20 28.45L20 28.55A0.45 0.45 0 0 0 20.45 29L20.55 29A0.45 0.45 0 0 0 21 28.55L21 28.45A0.45 0.45 0 0 0 20.55 28L20.45 28A0.45 0.45 0 0 0 20 28.45Z" fill="#000000"/></g></g></svg>
