<svg xmlns="http://www.w3.org/2000/svg" width="1024" height="1024" viewBox="0 0 1024 1024"><rect x="0.0" y="0.0" width="128.0" height="128.0" fill="rgb(52,24,139)"/><rect x="128.0" y="0.0" width="128.0" height="128.0" fill="rgb(57,18,170)"/><rect x="256.0" y="0.0" width="128.0" height="128.0" fill="rgb(54,34,168)"/><rect x="384.0" y="0.0" width="128.0" height="128.0" fill="rgb(27,37,167)"/><rect x="512.0" y="0.0" width="128.0" height="128.0" fill="rgb(27,40,168)"/><rect x="640.0" y="0.0" width="128.0" height="128.0" fill="rgb(45,60,174)"/><rect x="768.0" y="0.0" width="128.0" height="128.0" fill="rgb(40,93,187)"/><rect x="896.0" y="0.0" width="128.0" height="128.0" fill="rgb(134,179,207)"/><rect x="0.0" y="128.0" width="128.0" height="128.0" fill="rgb(65,34,157)"/><rect x="128.0" y="128.0" width="128.0" height="128.0" fill="rgb(52,26,192)"/><rect x="256.0" y="128.0" width="128.0" height="128.0" fill="rgb(56,47,199)"/><rect x="384.0" y="128.0" width="128.0" height="128.0" fill="rgb(39,52,199)"/><rect x="512.0" y="128.0" width="128.0" height="128.0" fill="rgb(45,60,201)"/><rect x="640.0" y="128.0" width="128.0" height="128.0" fill="rgb(73,87,207)"/><rect x="768.0" y="128.0" width="128.0" height="128.0" fill="rgb(64,107,210)"/><rect x="896.0" y="128.0" width="128.0" height="128.0" fill="rgb(156,191,227)"/><rect x="0.0" y="256.0" width="128.0" height="128.0" fill="rgb(82,51,174)"/><rect x="128.0" y="256.0" width="128.0" height="128.0" fill="rgb(32,42,214)"/><rect x="256.0" y="256.0" width="128.0" height="128.0" fill="rgb(54,72,230)"/><rect x="384.0" y="256.0" width="128.0" height="128.0" fill="rgb(61,80,243)"/><rect x="512.0" y="256.0" width="128.0" height="128.0" fill="rgb(78,96,248)"/><rect x="640.0" y="256.0" width="128.0" height="128.0" fill="rgb(119,133,250)"/><rect x="768.0" y="256.0" width="128.0" height="128.0" fill="rgb(105,116,227)"/><rect x="896.0" y="256.0" width="128.0" height="128.0" fill="rgb(168,173,219)"/><rect x="0.0" y="384.0" width="128.0" height="128.0" fill="rgb(67,65,171)"/><rect x="128.0" y="384.0" width="128.0" height="128.0" fill="rgb(32,49,227)"/><rect x="256.0" y="384.0" width="128.0" height="128.0" fill="rgb(59,78,242)"/><rect x="384.0" y="384.0" width="128.0" height="128.0" fill="rgb(54,74,245)"/><rect x="512.0" y="384.0" width="128.0" height="128.0" fill="rgb(66,89,243)"/><rect x="640.0" y="384.0" width="128.0" height="128.0" fill="rgb(115,150,226)"/><rect x="768.0" y="384.0" width="128.0" height="128.0" fill="rgb(125,165,130)"/><rect x="896.0" y="384.0" width="128.0" height="128.0" fill="rgb(169,192,136)"/><rect x="0.0" y="512.0" width="128.0" height="128.0" fill="rgb(64,74,171)"/><rect x="128.0" y="512.0" width="128.0" height="128.0" fill="rgb(34,54,232)"/><rect x="256.0" y="512.0" width="128.0" height="128.0" fill="rgb(65,86,246)"/><rect x="384.0" y="512.0" width="128.0" height="128.0" fill="rgb(55,79,243)"/><rect x="512.0" y="512.0" width="128.0" height="128.0" fill="rgb(67,94,232)"/><rect x="640.0" y="512.0" width="128.0" height="128.0" fill="rgb(117,161,204)"/><rect x="768.0" y="512.0" width="128.0" height="128.0" fill="rgb(142,187,84)"/><rect x="896.0" y="512.0" width="128.0" height="128.0" fill="rgb(173,199,96)"/><rect x="0.0" y="640.0" width="128.0" height="128.0" fill="rgb(100,108,184)"/><rect x="128.0" y="640.0" width="128.0" height="128.0" fill="rgb(62,80,230)"/><rect x="256.0" y="640.0" width="128.0" height="128.0" fill="rgb(111,141,233)"/><rect x="384.0" y="640.0" width="128.0" height="128.0" fill="rgb(103,162,200)"/><rect x="512.0" y="640.0" width="128.0" height="128.0" fill="rgb(124,180,128)"/><rect x="640.0" y="640.0" width="128.0" height="128.0" fill="rgb(153,198,65)"/><rect x="768.0" y="640.0" width="128.0" height="128.0" fill="rgb(233,194,36)"/><rect x="896.0" y="640.0" width="128.0" height="128.0" fill="rgb(228,187,50)"/><rect x="0.0" y="768.0" width="128.0" height="128.0" fill="rgb(81,120,176)"/><rect x="128.0" y="768.0" width="128.0" height="128.0" fill="rgb(55,117,218)"/><rect x="256.0" y="768.0" width="128.0" height="128.0" fill="rgb(124,171,217)"/><rect x="384.0" y="768.0" width="128.0" height="128.0" fill="rgb(134,186,166)"/><rect x="512.0" y="768.0" width="128.0" height="128.0" fill="rgb(171,198,122)"/><rect x="640.0" y="768.0" width="128.0" height="128.0" fill="rgb(197,204,83)"/><rect x="768.0" y="768.0" width="128.0" height="128.0" fill="rgb(237,174,49)"/><rect x="896.0" y="768.0" width="128.0" height="128.0" fill="rgb(228,168,60)"/><rect x="0.0" y="896.0" width="128.0" height="128.0" fill="rgb(63,132,168)"/><rect x="128.0" y="896.0" width="128.0" height="128.0" fill="rgb(48,153,207)"/><rect x="256.0" y="896.0" width="128.0" height="128.0" fill="rgb(137,201,203)"/><rect x="384.0" y="896.0" width="128.0" height="128.0" fill="rgb(163,208,135)"/><rect x="512.0" y="896.0" width="128.0" height="128.0" fill="rgb(216,216,116)"/><rect x="640.0" y="896.0" width="128.0" height="128.0" fill="rgb(239,211,101)"/><rect x="768.0" y="896.0" width="128.0" height="128.0" fill="rgb(241,159,60)"/><rect x="896.0" y="896.0" width="128.0" height="128.0" fill="rgb(228,153,70)"/></svg>